<svg id="svg" xmlns="http://www.w3.org/2000/svg" xmlns:xlink="http://www.w3.org/1999/xlink" width="400" height="533.3333333333334" viewBox="0, 0, 400,533.3333333333334"><g id="svgg"><path id="path0" d="M186.068 68.428 L 175.224 79.472 169.257 77.163 C 165.976 75.892,161.528 74.172,159.374 73.340 L 155.457 71.827 145.583 79.244 L 135.710 86.662 129.036 102.879 C 125.366 111.798,122.363 119.402,122.363 119.775 C 122.363 120.817,116.839 121.499,108.314 121.510 L 100.595 121.519 100.087 133.122 C 99.808 139.504,98.834 149.662,97.922 155.696 C 97.011 161.730,96.010 168.678,95.698 171.136 L 95.131 175.605 65.076 203.146 C 48.546 218.294,34.903 230.973,34.758 231.323 C 34.613 231.672,37.541 237.279,41.264 243.783 L 48.033 255.607 46.828 265.884 C 45.496 277.253,45.394 276.777,50.758 284.315 L 54.008 288.882 54.008 297.631 L 54.008 306.379 60.836 317.746 C 64.591 323.999,67.755 329.114,67.867 329.114 C 68.275 329.114,86.619 322.475,90.928 320.767 C 93.365 319.802,95.359 319.269,95.359 319.583 C 95.359 319.896,93.641 325.312,91.541 331.618 L 87.723 343.083 90.275 359.364 C 92.025 370.527,92.827 378.700,92.827 385.363 L 92.827 395.080 108.530 425.860 C 117.166 442.789,124.476 456.396,124.774 456.097 C 125.072 455.798,125.182 447.516,125.018 437.693 C 124.854 427.869,124.987 420.090,125.313 420.407 C 126.008 421.082,134.600 440.781,139.233 452.321 C 143.025 461.768,166.857 513.145,167.977 514.290 C 169.299 515.640,169.430 514.539,168.674 508.439 C 167.124 495.925,162.025 448.081,162.025 446.051 C 162.025 444.139,163.413 445.058,175.316 454.848 C 191.416 468.091,192.390 468.441,188.964 459.749 C 186.565 453.664,186.462 453.942,200.665 428.200 C 207.598 415.635,213.930 403.367,214.738 400.935 C 216.654 395.167,216.482 394.862,222.418 414.614 C 228.154 433.703,228.788 434.487,231.751 426.160 C 242.476 396.018,246.902 383.981,247.262 383.974 C 247.496 383.970,248.547 386.180,249.596 388.887 C 253.175 398.117,254.196 398.215,253.614 389.273 L 253.109 381.499 270.944 354.885 C 280.754 340.247,288.883 328.270,289.009 328.270 C 289.135 328.270,286.434 336.909,283.006 347.468 C 271.797 381.995,269.865 388.290,270.334 388.759 C 270.991 389.416,272.221 388.370,297.258 365.869 L 319.742 345.663 329.153 323.253 C 334.329 310.928,338.861 300.528,339.224 300.142 C 339.587 299.756,342.252 302.699,345.146 306.682 C 352.610 316.956,351.732 319.055,354.464 284.410 C 356.496 258.630,355.445 261.087,366.243 256.879 C 376.089 253.042,376.041 253.173,370.146 246.224 C 366.252 241.634,351.055 209.869,351.055 206.320 C 351.055 206.019,343.341 194.696,333.914 181.157 C 324.487 167.617,316.481 156.052,316.124 155.455 C 315.761 154.848,316.307 152.363,317.367 149.806 L 319.259 145.242 316.741 132.326 L 314.222 119.409 289.743 107.173 C 276.279 100.443,264.344 94.308,263.222 93.539 C 262.100 92.770,247.131 84.662,229.958 75.522 C 212.785 66.381,198.608 58.561,198.453 58.143 C 197.886 56.613,196.707 57.592,186.068 68.428 M230.637 77.637 C 247.611 86.688,261.238 94.309,260.918 94.574 C 260.092 95.258,218.662 103.258,215.613 103.322 L 213.082 103.376 205.737 82.700 C 201.697 71.329,198.374 61.709,198.352 61.322 C 198.297 60.345,196.527 59.450,230.637 77.637 M187.292 87.842 C 183.058 101.491,179.491 112.764,179.365 112.894 C 179.238 113.023,178.663 106.378,178.086 98.126 C 177.509 89.874,176.982 82.522,176.915 81.787 C 176.790 80.420,194.323 61.413,194.752 62.451 C 194.882 62.767,191.525 74.193,187.292 87.842 M202.195 77.276 C 210.069 99.578,211.446 104.050,210.549 104.396 C 210.084 104.575,203.249 107.309,195.359 110.471 C 187.468 113.634,180.907 115.957,180.777 115.633 C 180.598 115.183,194.113 70.275,196.249 64.225 C 196.891 62.408,197.135 62.945,202.195 77.276 M165.657 77.526 C 170.207 79.318,173.951 81.053,173.977 81.382 C 174.048 82.271,146.514 123.916,145.807 123.989 C 145.474 124.023,145.378 123.576,145.595 122.996 C 145.812 122.416,148.245 111.593,151.003 98.947 C 155.399 78.785,156.542 74.251,157.223 74.265 C 157.311 74.267,161.107 75.734,165.657 77.526 M154.164 77.004 C 153.917 78.049,151.531 88.966,148.861 101.266 C 144.196 122.758,142.637 128.101,142.598 122.743 C 142.587 121.373,141.451 113.228,140.073 104.641 C 138.695 96.055,137.564 88.645,137.560 88.175 C 137.556 87.706,140.624 85.047,144.378 82.268 C 148.133 79.489,151.645 76.755,152.184 76.192 C 153.741 74.568,154.652 74.941,154.164 77.004 M176.538 106.665 L 176.793 118.393 160.970 123.689 C 152.268 126.601,145.148 128.822,145.148 128.625 C 145.148 128.427,151.888 118.149,160.127 105.786 L 175.105 83.307 175.694 89.122 C 176.017 92.320,176.397 100.214,176.538 106.665 M139.205 109.723 C 140.752 119.944,141.809 128.515,141.554 128.769 C 140.943 129.380,123.629 121.810,123.629 120.932 C 123.629 119.747,135.422 91.173,135.918 91.156 C 136.180 91.147,137.659 99.502,139.205 109.723 M284.967 106.763 C 296.484 112.571,305.148 117.132,304.219 116.900 C 303.291 116.668,297.785 115.377,291.983 114.031 C 262.359 107.159,240.794 102.014,239.662 101.547 C 238.486 101.061,258.078 96.489,262.182 96.291 C 263.196 96.242,273.449 100.955,284.967 106.763 M241.350 105.984 C 247.950 109.471,248.253 109.740,245.148 109.350 C 243.291 109.117,236.646 108.311,230.380 107.560 C 215.594 105.786,215.077 105.495,223.629 103.765 C 233.519 101.763,233.312 101.737,241.350 105.984 M279.190 112.719 C 297.449 117.023,312.485 120.669,312.603 120.821 C 313.019 121.354,317.296 142.901,317.037 143.160 C 316.893 143.304,307.115 138.376,295.308 132.210 C 283.500 126.043,267.004 117.461,258.650 113.138 C 243.651 105.376,239.628 102.955,243.882 104.250 C 245.042 104.603,260.931 108.414,279.190 112.719 M207.923 115.933 C 202.627 133.602,204.488 131.183,190.405 138.707 C 183.569 142.359,177.802 145.171,177.588 144.958 C 177.002 144.371,178.897 119.496,179.578 118.843 C 180.179 118.266,209.251 106.445,210.253 106.370 C 210.555 106.348,209.506 110.651,207.923 115.933 M235.021 109.741 C 243.376 110.757,250.658 112.019,251.203 112.545 C 251.977 113.291,271.788 154.673,274.083 160.338 C 274.365 161.034,268.188 155.717,260.355 148.523 C 239.742 129.589,219.250 110.617,217.300 108.661 L 215.612 106.968 217.722 107.431 C 218.882 107.686,226.667 108.725,235.021 109.741 M228.673 121.479 C 234.949 127.258,244.641 136.181,250.211 141.308 C 255.781 146.434,262.996 153.134,266.245 156.196 C 269.494 159.258,273.472 162.867,275.087 164.215 C 278.071 166.708,288.789 176.699,300.656 188.049 C 308.992 196.022,308.869 196.051,295.289 189.339 C 289.061 186.261,275.232 179.486,264.557 174.284 C 253.882 169.082,240.710 162.643,235.286 159.975 L 225.424 155.123 224.543 151.190 C 223.621 147.078,214.674 112.213,213.788 109.283 L 213.278 107.595 215.269 109.283 C 216.365 110.211,222.396 115.699,228.673 121.479 M212.957 112.025 C 213.237 113.302,215.905 123.873,218.885 135.516 L 224.304 156.686 221.314 168.659 C 219.670 175.243,218.173 180.480,217.988 180.295 C 216.181 178.488,205.121 137.885,205.039 132.755 C 205.005 130.669,211.260 109.724,211.920 109.713 C 212.210 109.709,212.677 110.749,212.957 112.025 M284.473 128.362 C 300.671 136.767,313.924 143.800,313.924 143.991 C 313.924 144.525,271.578 143.262,269.305 142.660 C 267.114 142.080,252.614 113.080,254.516 113.080 C 254.795 113.080,268.276 119.957,284.473 128.362 M176.847 124.684 C 176.613 126.888,176.194 132.790,175.916 137.799 L 175.410 146.905 181.435 157.923 C 184.748 163.982,187.338 169.048,187.190 169.180 C 187.041 169.313,185.021 169.833,182.700 170.337 C 180.380 170.841,167.117 173.731,153.228 176.759 C 139.339 179.788,127.891 182.173,127.788 182.061 C 127.405 181.645,116.657 161.235,116.217 160.090 C 115.930 159.342,120.825 153.847,129.461 145.222 L 143.160 131.542 159.133 126.181 C 178.733 119.602,177.375 119.717,176.847 124.684 M119.644 123.315 C 119.515 123.684,115.422 129.187,110.549 135.543 L 101.688 147.101 101.407 142.960 C 101.253 140.682,101.382 135.321,101.694 131.047 L 102.262 123.275 108.726 123.030 C 112.281 122.895,116.245 122.753,117.534 122.714 C 118.823 122.676,119.773 122.946,119.644 123.315 M130.243 126.249 C 134.031 127.922,138.069 129.653,139.217 130.096 C 141.054 130.806,106.923 147.679,103.650 147.679 C 102.794 147.679,121.731 123.345,122.648 123.267 C 123.037 123.234,126.455 124.576,130.243 126.249 M206.785 148.986 C 208.733 157.131,210.186 163.900,210.016 164.029 C 208.702 165.018,190.333 169.571,189.810 169.037 C 188.687 167.893,178.059 148.579,178.059 147.684 C 178.059 147.102,200.577 134.996,203.098 134.222 C 203.178 134.197,204.837 140.841,206.785 148.986 M136.639 135.376 C 136.445 135.572,131.540 140.577,125.738 146.499 C 112.064 160.456,97.039 174.267,97.074 172.846 C 97.145 170.042,100.241 151.799,100.729 151.311 C 101.430 150.610,135.185 135.180,136.217 135.089 C 136.642 135.052,136.832 135.181,136.639 135.376 M296.177 145.591 C 314.100 146.100,315.510 146.274,312.142 147.555 C 311.034 147.977,303.645 151.547,295.724 155.490 C 275.820 165.395,278.376 165.471,273.405 154.826 C 268.200 143.679,268.172 144.127,274.051 144.660 C 276.719 144.902,286.676 145.321,296.177 145.591 M316.456 148.091 C 316.456 148.318,314.470 152.495,312.044 157.374 L 307.632 166.245 302.128 166.150 C 299.101 166.098,293.017 165.803,288.608 165.493 L 280.591 164.931 297.813 156.305 C 314.108 148.144,316.456 147.109,316.456 148.091 M328.692 176.400 C 336.118 187.078,342.755 196.662,343.440 197.696 C 344.851 199.828,341.813 197.185,322.996 179.909 C 315.686 173.198,309.705 167.425,309.705 167.081 C 309.705 165.784,313.930 156.963,314.546 156.973 C 314.900 156.980,321.266 165.721,328.692 176.400 M260.485 174.120 C 296.621 191.662,306.294 196.518,305.231 196.583 C 304.068 196.654,219.972 182.321,219.753 182.014 C 219.384 181.497,225.748 157.806,226.256 157.806 C 226.598 157.806,242.001 165.147,260.485 174.120 M120.206 171.610 C 126.754 183.953,126.597 182.360,122.276 192.607 L 118.809 200.827 95.667 217.713 C 82.085 227.624,71.751 234.600,70.651 234.602 C 66.814 234.608,40.058 230.995,39.385 230.380 C 38.841 229.882,73.728 197.276,110.026 164.358 C 114.593 160.216,113.900 159.723,120.206 171.610 M214.167 175.001 L 217.151 183.335 208.786 191.436 C 204.186 195.892,194.812 205.013,187.956 211.705 C 181.100 218.397,175.345 223.723,175.166 223.540 C 174.464 222.818,188.873 172.593,189.971 171.937 C 191.959 170.749,207.926 166.329,209.601 166.502 C 210.796 166.626,211.915 168.709,214.167 175.001 M299.343 167.765 L 307.968 168.354 326.886 185.654 C 337.291 195.169,345.337 203.065,344.766 203.201 C 344.196 203.336,336.657 201.942,328.013 200.102 L 312.297 196.756 296.866 182.243 C 288.379 174.261,281.331 167.466,281.205 167.143 C 280.978 166.562,282.545 166.616,299.343 167.765 M178.059 173.775 C 177.363 174.175,171.166 177.046,164.289 180.155 L 151.784 185.807 142.980 184.764 C 131.948 183.457,131.981 182.963,143.249 180.665 C 148.238 179.648,157.827 177.550,164.557 176.004 C 177.864 172.946,180.160 172.567,178.059 173.775 M178.756 177.855 C 146.828 206.933,149.497 205.417,150.816 193.724 L 151.477 187.871 166.667 180.957 C 183.600 173.251,183.895 173.175,178.756 177.855 M186.187 175.316 C 185.954 176.129,182.853 187.426,179.296 200.422 C 175.739 213.418,172.754 224.131,172.663 224.230 C 172.571 224.328,168.750 223.284,164.170 221.909 C 159.590 220.534,155.746 219.409,155.628 219.409 C 155.510 219.409,154.378 216.302,153.113 212.504 L 150.814 205.600 155.003 201.745 C 157.308 199.625,162.963 194.474,167.571 190.298 C 172.179 186.122,178.038 180.718,180.591 178.289 C 185.486 173.632,186.885 172.889,186.187 175.316 M306.548 199.344 C 304.181 200.317,248.453 214.346,246.957 214.346 C 245.845 214.346,222.893 187.157,222.130 184.934 C 222.002 184.561,241.277 187.513,264.965 191.495 C 290.034 195.709,307.412 198.989,306.548 199.344 M138.397 185.771 C 148.414 187.117,148.333 187.287,134.897 193.096 C 121.592 198.849,121.619 198.846,123.455 194.339 C 127.929 183.354,126.499 184.173,138.397 185.771 M232.784 200.854 L 244.892 215.981 230.674 242.568 C 222.854 257.190,216.242 269.164,215.980 269.176 C 215.718 269.188,215.628 267.015,215.779 264.346 C 216.256 255.905,218.495 211.061,219.086 198.101 C 219.398 191.255,219.883 185.670,220.164 185.691 C 220.445 185.711,226.124 192.534,232.784 200.854 M207.010 204.852 C 202.111 214.483,197.572 223.217,196.922 224.262 C 195.801 226.064,195.219 226.160,185.424 226.146 L 175.105 226.131 181.435 220.100 C 184.916 216.782,193.866 208.055,201.324 200.705 C 208.782 193.355,215.116 187.342,215.400 187.342 C 215.684 187.342,211.908 195.222,207.010 204.852 M216.074 226.816 C 215.123 245.927,214.346 263.167,214.346 265.127 C 214.346 270.622,213.455 268.710,205.557 246.282 L 198.230 225.475 207.765 206.907 C 214.146 194.482,217.383 188.957,217.550 190.205 C 217.688 191.231,217.024 207.706,216.074 226.816 M147.539 190.682 C 146.809 192.778,121.863 233.730,121.308 233.742 C 120.146 233.766,120.556 201.991,121.730 201.039 C 124.821 198.532,148.051 189.210,147.539 190.682 M148.664 198.923 L 148.303 204.597 138.203 216.222 C 127.964 228.009,125.844 230.059,129.018 225.105 C 129.984 223.597,134.664 215.812,139.417 207.806 C 149.278 191.198,149.148 191.323,148.664 198.923 M333.735 202.953 C 342.079 204.633,348.948 206.080,349.000 206.168 C 349.700 207.347,362.765 238.360,362.622 238.503 C 362.400 238.725,318.428 202.323,316.456 200.284 C 315.324 199.114,315.369 199.024,316.878 199.436 C 317.806 199.690,325.392 201.273,333.735 202.953 M307.141 201.477 C 307.123 201.825,305.699 203.101,303.976 204.313 C 302.254 205.525,294.008 211.740,285.654 218.125 C 277.300 224.509,264.008 234.614,256.118 240.580 C 248.228 246.546,236.551 255.422,230.169 260.306 C 223.787 265.189,218.565 268.954,218.565 268.672 C 218.565 268.390,222.104 261.653,226.430 253.700 C 230.755 245.747,237.077 234.095,240.478 227.805 L 246.663 216.370 274.597 209.322 C 289.961 205.445,303.291 201.976,304.219 201.612 C 306.441 200.742,307.180 200.708,307.141 201.477 M313.089 217.778 C 314.315 225.683,315.035 232.325,314.689 232.538 C 313.827 233.071,299.744 237.131,298.758 237.131 C 298.321 237.131,299.311 233.428,300.959 228.903 C 302.607 224.378,305.332 216.613,307.015 211.648 C 308.698 206.683,310.252 202.797,310.468 203.013 C 310.684 203.229,311.863 209.874,313.089 217.778 M355.274 234.860 C 360.148 238.963,364.135 242.766,364.135 243.312 C 364.135 244.570,355.997 259.072,355.290 259.072 C 354.725 259.072,316.456 203.818,316.456 203.002 C 316.456 202.552,333.940 216.901,355.274 234.860 M117.245 210.338 C 116.388 214.167,113.493 227.268,110.813 239.451 C 108.132 251.635,105.738 261.603,105.493 261.603 C 105.248 261.603,97.928 255.857,89.226 248.834 L 73.404 236.065 81.628 230.058 C 86.152 226.754,96.123 219.431,103.787 213.784 C 111.451 208.137,117.965 203.485,118.263 203.446 C 118.561 203.407,118.103 206.508,117.245 210.338 M302.888 218.651 C 300.050 226.726,297.348 234.378,296.883 235.654 C 296.418 236.930,295.524 237.975,294.897 237.975 C 293.966 237.975,224.687 267.606,222.574 268.908 C 222.226 269.122,221.941 269.128,221.941 268.920 C 221.941 268.713,225.454 265.878,229.747 262.621 C 234.040 259.364,253.302 244.723,272.551 230.085 C 291.800 215.447,307.662 203.583,307.798 203.720 C 307.935 203.856,305.725 210.575,302.888 218.651 M334.614 232.489 C 357.156 265.137,354.958 258.894,352.800 284.124 C 351.840 295.350,351.055 305.572,351.055 306.839 C 351.055 311.475,352.092 314.365,323.621 230.380 C 319.294 217.616,315.472 206.414,315.126 205.485 C 314.149 202.857,314.260 203.011,334.614 232.489 M315.037 209.916 C 316.173 213.587,327.653 247.451,337.104 275.010 C 339.235 281.224,340.847 286.438,340.687 286.599 C 338.941 288.345,316.401 229.706,314.823 219.314 C 312.541 204.272,312.592 202.012,315.037 209.916 M151.788 213.455 C 152.777 216.446,153.586 219.197,153.586 219.568 C 153.586 220.080,130.174 232.458,125.316 234.514 C 124.649 234.797,131.484 226.218,133.317 224.473 C 133.561 224.241,137.128 220.129,141.245 215.335 C 145.361 210.542,149.013 206.934,149.360 207.318 C 149.706 207.703,150.799 210.464,151.788 213.455 M119.224 237.221 L 119.562 260.517 114.111 261.522 C 106.926 262.846,107.019 264.764,112.953 237.755 C 115.833 224.648,118.223 213.354,118.264 212.658 C 118.562 207.652,118.933 217.146,119.224 237.221 M162.914 223.357 C 167.067 224.600,170.464 225.840,170.464 226.112 C 170.464 226.384,165.622 231.433,159.705 237.331 L 148.945 248.055 135.280 253.879 L 121.615 259.703 121.356 249.516 C 121.202 243.440,121.438 239.031,121.941 238.590 C 122.665 237.955,154.400 221.259,155.108 221.140 C 155.249 221.116,158.761 222.114,162.914 223.357 M195.233 233.544 C 196.051 243.952,196.882 266.286,196.433 265.823 C 195.742 265.109,175.527 228.925,175.527 228.401 C 175.527 228.131,179.230 227.785,183.755 227.633 C 188.281 227.482,192.599 227.278,193.351 227.181 C 194.473 227.036,194.811 228.181,195.233 233.544 M201.231 238.819 C 203.426 245.084,207.047 255.338,209.276 261.603 L 213.330 272.996 209.610 292.827 C 205.304 315.791,205.477 315.109,204.784 311.814 C 204.236 309.205,199.479 274.316,199.262 271.308 C 197.713 249.857,196.485 226.564,196.931 227.075 C 197.100 227.268,199.035 232.553,201.231 238.819 M170.428 242.312 C 169.427 249.917,168.174 256.381,167.638 256.703 C 167.104 257.024,159.072 262.204,149.789 268.214 C 140.506 274.223,132.759 278.998,132.573 278.824 C 130.733 277.104,149.681 250.127,160.206 239.481 C 166.499 233.115,171.783 228.042,171.948 228.206 C 172.112 228.371,171.428 234.718,170.428 242.312 M185.155 249.312 C 190.999 259.725,195.781 268.464,195.781 268.732 C 195.781 269.174,174.089 258.430,171.474 256.693 C 170.231 255.868,172.921 230.380,174.251 230.380 C 174.404 230.380,179.311 238.899,185.155 249.312 M55.239 234.611 C 70.172 236.548,70.170 236.547,67.857 238.617 C 66.955 239.424,62.756 243.217,58.525 247.046 C 48.967 255.697,50.155 255.971,43.087 243.488 C 36.267 231.442,36.378 231.782,39.451 232.399 C 40.728 232.655,47.832 233.650,55.239 234.611 M320.074 243.671 C 322.184 248.660,327.782 261.667,332.513 272.574 C 337.245 283.481,342.388 295.348,343.944 298.945 C 347.365 306.857,347.189 307.003,342.415 300.211 C 340.376 297.310,329.904 282.704,319.143 267.754 C 308.382 252.803,299.578 240.196,299.578 239.739 C 299.578 238.856,311.423 234.830,314.448 234.685 C 315.945 234.613,316.862 236.078,320.074 243.671 M89.662 251.464 C 97.901 258.097,104.607 263.946,104.565 264.462 C 104.523 264.978,98.828 270.462,91.909 276.647 L 79.330 287.893 67.557 281.731 L 55.783 275.569 53.171 266.138 L 50.559 256.706 55.026 252.519 C 68.244 240.133,72.066 237.176,73.394 238.307 C 74.103 238.911,81.424 244.831,89.662 251.464 M296.203 240.120 C 296.203 240.836,294.762 243.400,293.000 245.817 C 291.239 248.234,280.155 264.158,268.368 281.204 C 256.581 298.251,246.860 312.112,246.765 312.006 C 246.246 311.429,254.568 257.343,255.274 256.708 C 255.738 256.290,262.384 253.258,270.042 249.971 C 277.700 246.684,286.435 242.858,289.451 241.469 C 295.936 238.484,296.203 238.430,296.203 240.120 M312.196 312.805 C 312.266 313.063,294.672 319.831,293.931 319.831 C 293.540 319.831,293.493 315.369,293.827 309.916 C 294.161 304.462,295.025 289.557,295.748 276.793 C 297.929 238.232,297.074 238.117,305.156 278.059 C 309.006 297.089,312.174 312.724,312.196 312.805 M294.436 272.996 C 293.541 288.312,292.529 303.692,292.185 307.173 L 291.561 313.502 286.723 290.125 C 284.061 277.268,281.783 266.402,281.659 265.978 C 281.445 265.243,295.433 244.519,295.857 244.943 C 295.970 245.056,295.330 257.679,294.436 272.996 M321.226 273.418 C 330.037 285.717,337.486 296.188,337.779 296.686 C 338.072 297.184,334.685 306.108,330.253 316.517 C 325.820 326.926,321.788 336.677,321.293 338.186 C 320.797 339.694,320.136 340.928,319.824 340.928 C 319.343 340.928,300.402 247.494,300.417 245.192 C 300.420 244.753,301.498 245.892,302.814 247.724 C 304.130 249.556,312.415 261.118,321.226 273.418 M369.666 248.032 C 373.288 252.539,373.409 252.310,365.823 255.357 C 357.569 258.672,357.789 258.924,362.139 251.145 C 366.316 243.678,366.204 243.724,369.666 248.032 M138.644 264.768 C 130.156 278.810,129.080 280.416,128.530 279.866 C 127.661 278.998,121.609 262.074,122.017 261.655 C 122.697 260.956,144.560 251.623,145.701 251.544 C 146.238 251.507,143.062 257.458,138.644 264.768 M196.624 271.821 C 196.624 272.118,190.074 281.904,182.068 293.568 C 174.061 305.232,163.743 320.278,159.137 327.003 C 154.532 333.728,150.666 339.133,150.546 339.013 C 150.348 338.815,169.201 261.742,170.051 259.275 C 170.412 258.228,196.624 270.605,196.624 271.821 M250.889 259.283 C 250.453 259.863,240.467 273.344,228.700 289.241 C 216.932 305.137,207.060 318.143,206.761 318.143 C 206.462 318.143,206.889 314.821,207.710 310.759 C 208.531 306.698,210.384 297.110,211.829 289.451 C 214.991 272.681,213.218 274.619,233.565 265.697 C 251.176 257.975,252.144 257.616,250.889 259.283 M167.932 259.300 C 167.932 260.436,151.925 299.125,151.494 299.030 C 150.396 298.787,130.802 283.476,130.827 282.880 C 130.872 281.807,167.932 258.256,167.932 259.300 M52.072 268.512 C 53.322 273.338,53.989 278.011,53.835 280.866 L 53.586 285.458 50.539 280.915 L 47.492 276.371 48.327 268.111 C 49.310 258.381,49.452 258.396,52.072 268.512 M122.881 270.395 C 126.559 279.928,126.397 280.210,120.253 274.981 C 107.270 263.930,107.594 264.463,113.175 263.345 C 119.557 262.066,119.710 262.176,122.881 270.395 M244.827 276.419 C 242.123 282.891,232.576 306.034,223.611 327.848 C 214.646 349.662,206.995 367.871,206.609 368.312 C 206.223 368.753,205.908 358.690,205.910 345.949 L 205.913 322.785 218.779 305.412 C 246.241 268.331,249.320 264.228,249.529 264.437 C 249.647 264.556,247.532 269.948,244.827 276.419 M116.466 273.997 C 121.742 278.493,125.702 282.278,125.266 282.408 C 123.280 283.000,83.333 287.833,83.019 287.520 C 82.653 287.154,105.533 265.962,106.390 265.873 C 106.656 265.845,111.190 269.501,116.466 273.997 M265.998 322.183 C 253.298 372.479,251.498 378.587,251.460 371.519 C 251.450 369.778,250.135 356.772,248.537 342.616 L 245.631 316.878 248.840 312.236 C 271.804 279.018,278.733 269.169,278.970 269.406 C 279.126 269.562,273.288 293.311,265.998 322.183 M284.959 289.283 C 286.929 298.890,289.197 310.065,289.999 314.115 L 291.459 321.479 273.039 348.949 C 262.907 364.057,254.489 376.289,254.330 376.130 C 254.172 375.972,257.245 363.232,261.159 347.819 C 265.073 332.406,271.042 308.818,274.424 295.402 C 277.806 281.986,280.755 271.191,280.976 271.412 C 281.197 271.633,282.990 279.675,284.959 289.283 M156.251 308.208 L 147.257 344.264 130.591 360.998 C 121.424 370.203,113.925 377.522,113.926 377.263 C 113.927 377.005,117.942 369.008,122.848 359.494 C 149.491 307.823,153.928 298.809,159.107 285.827 C 162.217 278.031,164.870 271.765,165.003 271.903 C 165.136 272.040,161.197 288.377,156.251 308.208 M240.380 309.742 L 231.881 347.257 219.989 359.253 C 213.449 365.851,207.985 371.135,207.846 370.997 C 207.708 370.858,209.063 367.169,210.859 362.799 C 212.654 358.428,221.401 337.194,230.296 315.612 C 239.192 294.030,246.888 275.315,247.399 274.024 C 249.528 268.645,248.468 274.040,240.380 309.742 M181.392 316.115 C 173.466 337.421,166.721 355.113,166.402 355.431 C 165.974 355.858,153.774 346.461,150.479 343.165 C 150.275 342.961,154.973 335.745,160.919 327.128 C 166.865 318.512,177.046 303.709,183.544 294.233 C 190.042 284.757,195.459 277.088,195.581 277.191 C 195.703 277.294,189.318 294.810,181.392 316.115 M200.822 296.225 C 202.254 306.656,203.624 316.185,203.866 317.402 C 204.296 319.563,170.495 354.754,169.814 352.854 C 169.689 352.504,174.178 339.899,179.789 324.843 C 195.456 282.813,197.748 276.792,197.992 277.035 C 198.116 277.160,199.389 285.795,200.822 296.225 M246.960 297.914 C 244.398 315.156,238.359 336.531,236.559 334.731 C 236.422 334.593,238.735 323.875,241.699 310.911 C 244.663 297.948,247.561 285.063,248.138 282.278 C 250.266 272.019,249.707 279.429,246.960 297.914 M67.630 283.711 C 73.136 286.587,77.356 289.184,77.007 289.483 C 74.376 291.727,56.697 304.641,56.255 304.641 C 55.948 304.641,55.696 298.755,55.696 291.561 C 55.696 276.174,54.592 276.900,67.630 283.711 M121.376 293.661 C 118.599 298.761,116.023 303.122,115.651 303.352 C 115.082 303.703,102.173 298.278,87.001 291.312 L 83.284 289.605 88.267 288.985 C 91.007 288.643,99.515 287.520,107.173 286.488 C 114.831 285.456,122.296 284.561,123.760 284.500 L 126.424 284.388 121.376 293.661 M130.807 285.021 C 130.811 285.369,132.159 286.570,133.803 287.690 C 135.447 288.810,139.842 292.110,143.570 295.023 L 150.348 300.320 147.537 300.798 C 143.995 301.401,119.073 304.641,117.976 304.641 C 117.528 304.641,117.896 303.407,118.794 301.899 C 119.692 300.390,122.211 295.833,124.392 291.772 C 127.697 285.619,130.783 282.371,130.807 285.021 M81.862 293.882 C 82.964 295.854,86.462 301.604,89.634 306.659 C 92.807 311.714,95.298 315.935,95.170 316.040 C 94.959 316.213,61.948 307.233,59.174 306.248 C 58.149 305.884,77.835 290.295,79.319 290.295 C 79.616 290.295,80.760 291.909,81.862 293.882 M108.694 302.900 C 111.619 304.218,113.917 305.623,113.800 306.023 C 113.498 307.061,98.458 316.385,97.771 315.960 C 97.123 315.559,82.700 292.365,82.700 291.723 C 82.700 291.355,90.827 294.850,108.694 302.900 M150.211 302.597 C 150.211 302.865,146.129 310.943,141.139 320.547 C 136.150 330.151,130.169 341.799,127.848 346.431 C 122.849 356.409,123.284 355.640,122.883 355.204 C 122.269 354.537,117.220 306.971,117.712 306.480 C 118.712 305.479,150.211 301.716,150.211 302.597 M116.931 318.606 C 117.960 327.397,117.994 329.614,117.115 330.447 C 111.833 335.449,98.364 346.835,97.729 346.835 C 97.287 346.835,95.277 345.870,93.263 344.690 L 89.602 342.544 93.602 330.555 L 97.602 318.565 106.396 312.959 C 111.233 309.876,115.297 307.451,115.428 307.571 C 115.558 307.691,116.235 312.657,116.931 318.606 M76.024 312.797 C 85.762 315.427,93.432 317.862,93.068 318.210 C 91.752 319.465,68.823 327.387,68.260 326.781 C 66.320 324.694,56.689 308.017,57.423 308.017 C 57.915 308.017,66.286 310.168,76.024 312.797 M305.904 325.105 C 302.927 330.327,294.875 344.560,288.009 356.735 C 281.144 368.909,275.285 378.878,274.989 378.887 C 274.496 378.902,281.003 358.440,289.721 332.566 L 293.249 322.094 301.266 318.926 C 305.675 317.184,309.740 315.725,310.299 315.685 C 310.858 315.645,308.880 319.884,305.904 325.105 M315.722 331.239 L 318.413 344.667 312.160 350.285 C 308.721 353.375,299.101 362.025,290.783 369.508 C 277.792 381.194,272.435 385.368,275.722 381.244 C 276.402 380.391,292.126 352.809,300.630 337.553 C 301.536 335.928,302.948 333.460,303.769 332.068 C 304.590 330.675,306.865 326.753,308.824 323.352 C 310.784 319.952,312.532 317.314,312.708 317.490 C 312.885 317.667,314.241 323.854,315.722 331.239 M248.075 353.586 C 249.940 370.527,251.665 385.516,251.909 386.893 C 252.751 391.651,250.816 387.795,242.201 367.545 L 233.600 347.326 237.622 337.165 C 243.436 322.476,244.092 321.004,244.404 321.941 C 244.558 322.405,246.210 336.646,248.075 353.586 M195.320 350.680 C 190.915 365.507,184.768 386.258,181.660 396.796 C 178.553 407.333,175.865 415.808,175.687 415.631 C 175.509 415.453,173.690 402.342,171.644 386.496 L 167.925 357.685 185.439 340.536 C 195.072 331.104,203.038 323.462,203.142 323.555 C 203.245 323.648,199.725 335.854,195.320 350.680 M204.378 349.478 L 204.114 371.531 191.386 392.956 C 184.385 404.741,178.553 414.277,178.425 414.149 C 178.297 414.021,181.756 401.956,186.112 387.338 C 190.469 372.720,196.230 353.260,198.915 344.094 C 201.600 334.928,203.987 327.428,204.219 327.427 C 204.451 327.426,204.523 337.349,204.378 349.478 M105.738 353.040 C 100.261 363.058,95.676 370.952,95.547 370.581 C 94.865 368.612,98.858 348.871,100.206 347.547 C 103.788 344.028,115.175 334.303,115.423 334.551 C 115.573 334.701,111.215 343.021,105.738 353.040 M120.032 346.600 L 121.434 359.023 115.521 370.214 L 109.608 381.405 102.848 378.006 C 99.130 376.136,96.208 374.257,96.356 373.829 C 97.025 371.889,117.772 334.199,118.176 334.189 C 118.426 334.182,119.262 339.768,120.032 346.600 M94.106 346.955 C 96.462 348.345,97.072 349.173,96.748 350.542 C 96.517 351.520,95.854 356.023,95.275 360.549 C 93.894 371.351,93.512 370.986,91.519 356.962 C 90.596 350.464,90.111 345.148,90.442 345.148 C 90.772 345.148,92.421 345.961,94.106 346.955 M159.916 353.191 C 163.165 355.934,165.948 358.251,166.101 358.341 C 166.446 358.542,173.012 408.372,172.926 410.127 C 172.880 411.067,155.143 359.365,151.358 347.257 C 150.755 345.328,149.899 344.734,159.916 353.191 M147.399 356.751 C 147.106 361.276,145.917 381.118,144.758 400.844 C 142.573 438.016,141.615 450.026,141.125 446.414 C 140.967 445.253,138.430 430.633,135.487 413.924 L 130.135 383.544 138.649 366.034 C 143.332 356.403,147.336 348.523,147.548 348.523 C 147.760 348.523,147.693 352.226,147.399 356.751 M136.917 365.858 L 128.692 382.349 120.886 382.206 C 116.593 382.128,113.080 381.831,113.080 381.546 C 113.080 381.065,144.449 349.367,144.926 349.367 C 145.045 349.367,141.441 356.788,136.917 365.858 M239.934 366.248 L 246.319 381.019 239.156 400.847 C 235.216 411.752,231.459 422.004,230.808 423.629 L 229.623 426.582 229.593 423.207 C 229.576 421.350,230.310 405.970,231.224 389.030 C 232.137 372.089,232.891 356.551,232.898 354.501 C 232.905 352.451,233.055 350.932,233.230 351.125 C 233.405 351.319,236.422 358.124,239.934 366.248 M158.161 427.848 C 162.136 464.283,165.771 497.099,166.239 500.773 C 167.196 508.280,166.901 509.522,165.149 505.365 C 164.493 503.807,159.263 492.468,153.527 480.169 C 143.485 458.633,143.107 457.619,143.297 452.743 C 143.405 449.958,144.236 435.527,145.143 420.675 C 146.051 405.823,147.197 386.266,147.690 377.215 C 148.184 368.165,148.831 358.671,149.129 356.118 L 149.670 351.477 150.302 356.540 C 150.650 359.325,154.186 391.414,158.161 427.848 M230.380 352.181 C 230.380 353.390,212.495 402.649,212.172 402.327 C 212.039 402.194,210.896 395.685,209.633 387.862 L 207.335 373.639 218.224 362.918 C 227.914 353.379,230.380 351.201,230.380 352.181 M170.483 409.701 C 180.232 438.854,188.108 462.792,187.986 462.897 C 187.792 463.065,163.730 443.392,161.942 441.604 C 161.567 441.229,159.341 423.266,156.996 401.685 C 154.651 380.104,152.501 360.928,152.219 359.072 C 151.215 352.463,152.968 357.323,170.483 409.701 M229.513 390.750 C 228.567 409.482,227.691 424.911,227.566 425.036 C 227.441 425.161,225.156 417.997,222.488 409.115 L 217.638 392.967 224.198 374.591 C 227.806 364.485,230.865 356.322,230.996 356.453 C 231.127 356.584,230.459 372.017,229.513 390.750 M197.402 405.574 C 193.168 422.698,188.865 439.929,187.840 443.864 L 185.977 451.019 181.077 436.269 L 176.178 421.519 190.382 397.722 C 198.194 384.633,204.701 374.040,204.842 374.181 C 204.984 374.323,201.636 388.449,197.402 405.574 M103.237 380.029 L 109.849 383.626 116.451 398.986 C 120.082 407.434,122.802 414.319,122.497 414.286 C 122.191 414.253,115.865 409.777,108.439 404.339 L 94.937 394.452 94.697 385.412 C 94.416 374.790,94.040 375.027,103.237 380.029 M200.423 425.288 C 194.631 435.747,189.887 443.894,189.882 443.392 C 189.874 442.493,203.405 387.559,205.248 381.013 C 206.162 377.765,206.288 378.178,208.577 391.955 L 210.956 406.272 200.423 425.288 M123.694 383.934 L 128.822 383.966 129.862 390.506 C 130.435 394.103,132.891 408.519,135.321 422.541 C 137.750 436.564,139.571 447.869,139.367 447.665 C 138.556 446.854,112.236 385.237,112.236 384.149 C 112.236 383.285,113.051 383.103,115.401 383.444 C 117.141 383.696,120.873 383.917,123.694 383.934 M112.110 408.849 C 117.843 412.968,122.655 416.744,122.804 417.241 C 123.355 419.069,123.847 450.632,123.325 450.620 C 122.889 450.609,97.510 401.218,96.274 397.975 C 96.082 397.469,97.221 398.024,98.806 399.208 C 100.391 400.391,106.378 404.730,112.110 408.849 " stroke="none" fill="#000000" fill-rule="evenodd"></path></g></svg>