<svg id="svg" xmlns="http://www.w3.org/2000/svg" xmlns:xlink="http://www.w3.org/1999/xlink" width="400" height="118.34710743801654" viewBox="0, 0, 400,118.34710743801654"><g id="svgg"><path id="path0" d="M236.272 26.756 C 234.115 27.149,232.162 27.798,230.413 28.702 C 228.120 29.888,228.361 28.992,228.480 35.905 L 228.584 41.901 226.095 35.702 C 223.225 28.556,223.614 29.243,222.131 28.694 C 215.477 26.227,207.178 27.374,201.908 31.487 C 201.588 31.736,201.588 31.994,201.851 59.850 L 202.117 87.962 202.466 88.333 C 206.054 92.152,220.277 93.029,225.579 89.758 L 226.116 89.426 226.137 85.912 C 226.149 83.978,226.205 81.844,226.261 81.168 L 226.364 79.940 228.166 83.857 C 230.344 88.591,230.661 88.957,233.547 90.070 C 240.346 92.691,247.284 91.700,251.529 87.500 L 253.058 85.987 253.054 82.952 C 253.051 81.283,253.175 68.740,253.328 55.079 C 253.601 30.660,253.601 30.236,253.291 29.994 C 249.835 27.300,241.736 25.759,236.272 26.756 M19.917 26.848 C 16.344 27.559,12.981 29.719,11.535 32.232 L 11.107 32.975 10.896 58.874 C 10.669 86.772,10.638 85.394,11.527 86.932 C 14.485 92.048,22.248 92.767,30.939 88.728 L 32.434 88.034 32.337 86.620 C 32.284 85.843,32.194 84.463,32.137 83.554 L 32.033 81.901 34.502 85.211 C 37.986 89.880,39.051 90.575,42.727 90.576 C 50.357 90.579,56.198 85.635,56.198 79.175 L 56.198 77.705 55.252 76.580 C 54.732 75.961,51.705 72.405,48.525 68.678 C 45.346 64.950,42.274 61.347,41.700 60.670 C 41.125 59.993,40.675 59.382,40.699 59.312 C 40.724 59.242,44.165 55.574,48.347 51.161 C 57.540 41.459,57.567 41.416,57.044 36.821 C 56.167 29.104,51.176 25.730,44.129 28.091 C 41.207 29.071,41.034 29.201,37.430 33.175 C 35.633 35.156,33.684 37.288,33.099 37.913 L 32.034 39.048 32.091 34.450 L 32.149 29.852 31.234 29.336 C 27.355 27.148,23.107 26.214,19.917 26.848 M143.967 26.956 C 141.504 27.198,137.742 28.542,136.508 29.620 C 136.096 29.981,134.113 37.595,131.847 47.517 L 131.471 49.166 130.830 46.856 C 130.477 45.585,129.249 41.161,128.100 37.025 L 126.012 29.504 125.196 29.051 C 120.067 26.201,111.055 26.775,105.399 30.311 C 103.419 31.548,102.776 32.297,102.906 33.213 C 103.322 36.145,107.123 48.756,113.994 70.000 C 118.940 85.290,120.356 89.506,120.614 89.705 C 123.087 91.615,134.255 91.730,141.405 89.918 C 144.245 89.198,145.063 88.886,145.189 88.474 C 145.994 85.847,157.526 35.636,157.461 35.040 C 157.013 30.913,152.864 27.440,147.890 27.028 C 147.232 26.974,146.397 26.904,146.033 26.874 C 145.669 26.843,144.740 26.880,143.967 26.956 M74.298 27.200 C 66.025 27.312,59.089 27.412,58.884 27.421 L 58.512 27.438 58.512 58.678 L 58.512 89.917 60.455 89.916 C 65.583 89.912,96.437 89.242,96.520 89.133 C 101.832 82.067,102.198 74.757,97.538 68.771 L 97.225 68.368 88.135 68.413 L 79.045 68.457 78.974 66.501 C 78.936 65.426,78.909 64.534,78.915 64.521 C 78.921 64.507,80.934 64.450,83.388 64.393 C 90.096 64.237,89.739 64.298,90.623 63.170 C 93.983 58.889,93.809 51.739,90.257 48.113 C 89.007 46.837,88.943 46.823,83.760 46.688 C 81.238 46.622,79.174 46.516,79.174 46.451 C 79.174 46.323,84.855 46.122,88.926 46.107 C 93.405 46.090,94.670 45.937,96.073 45.244 C 101.732 42.447,103.052 32.992,98.497 27.882 L 97.660 26.942 93.499 26.969 C 91.211 26.983,82.570 27.087,74.298 27.200 M163.719 27.698 C 157.681 31.286,157.070 39.294,162.331 45.914 C 163.833 47.804,164.122 47.934,166.803 47.934 L 169.093 47.934 169.051 57.975 L 169.008 68.017 166.286 68.182 L 163.564 68.347 162.924 69.256 C 157.740 76.623,158.056 85.795,163.621 89.494 L 164.755 90.248 180.374 90.248 L 195.993 90.248 197.072 89.104 C 201.582 84.324,201.672 75.708,197.283 68.849 L 196.698 67.934 193.086 67.934 L 189.474 67.934 189.366 64.339 C 189.306 62.362,189.208 57.819,189.148 54.244 L 189.037 47.745 192.238 47.783 L 195.439 47.822 196.074 47.010 C 200.970 40.747,200.998 34.594,196.161 28.230 L 195.307 27.107 183.480 27.107 C 176.975 27.107,170.165 27.063,168.347 27.009 L 165.041 26.912 163.719 27.698 M354.628 27.200 C 346.355 27.312,339.419 27.412,339.215 27.421 L 338.843 27.438 338.843 58.678 L 338.843 89.917 340.785 89.916 C 341.853 89.915,350.351 89.769,359.669 89.590 L 376.612 89.266 377.138 88.647 C 381.978 82.947,382.373 75.299,378.144 69.184 L 377.579 68.368 368.480 68.413 L 359.381 68.457 359.302 66.501 C 359.258 65.426,359.229 64.535,359.239 64.522 C 359.248 64.509,361.695 64.430,364.675 64.346 L 370.094 64.194 370.625 63.565 C 374.633 58.819,374.049 49.852,369.565 47.291 L 368.727 46.812 364.115 46.691 C 361.579 46.624,359.504 46.517,359.504 46.452 C 359.504 46.323,365.177 46.122,369.256 46.107 C 375.202 46.084,376.422 45.761,378.533 43.650 C 382.586 39.597,382.588 31.829,378.538 27.562 L 377.949 26.942 373.809 26.969 C 371.532 26.983,362.901 27.087,354.628 27.200 M308.926 27.151 C 308.880 27.196,308.199 27.281,307.412 27.338 C 292.344 28.446,282.659 48.456,287.045 69.421 C 290.785 87.295,303.075 95.069,317.048 88.398 L 319.137 87.401 320.271 88.338 C 325.278 92.477,335.344 91.279,337.542 86.281 C 337.795 85.708,337.268 53.081,337.003 52.815 C 336.952 52.765,331.023 52.644,323.826 52.548 L 310.740 52.372 310.176 52.721 C 309.286 53.271,307.901 54.873,307.233 56.125 C 306.536 57.432,306.449 57.197,306.951 55.369 C 308.246 50.657,311.847 48.872,317.620 50.078 C 322.508 51.099,324.119 50.767,326.478 48.252 C 329.713 44.802,330.813 37.203,328.569 33.815 C 326.943 31.360,321.695 28.601,316.715 27.582 C 315.214 27.275,309.139 26.939,308.926 27.151 M245.620 30.341 C 247.490 30.666,249.638 31.316,249.904 31.637 C 250.049 31.811,250.029 38.303,249.823 58.289 L 249.551 84.711 248.784 85.507 C 246.119 88.272,238.979 88.861,234.166 86.713 C 232.956 86.173,233.259 86.727,228.003 75.428 C 225.374 69.777,223.205 65.171,223.182 65.193 C 223.129 65.245,222.649 83.731,222.646 85.813 L 222.645 87.411 221.860 87.667 C 218.264 88.839,209.125 88.548,206.415 87.174 L 205.620 86.771 205.616 84.584 C 205.614 83.381,205.504 72.764,205.372 60.992 C 205.240 49.219,205.131 38.174,205.130 36.446 L 205.128 33.306 205.693 32.940 C 208.718 30.981,216.344 30.248,219.892 31.575 L 220.784 31.909 226.688 46.409 C 229.935 54.384,232.641 60.961,232.701 61.025 C 232.761 61.089,232.610 54.915,232.367 47.306 C 232.123 39.697,231.918 33.049,231.912 32.533 L 231.901 31.595 232.769 31.173 C 235.262 29.963,241.230 29.577,245.620 30.341 M25.292 30.477 C 26.648 30.838,28.043 31.387,28.408 31.704 C 28.725 31.979,28.727 32.098,28.508 38.512 C 28.183 47.998,28.173 48.434,28.274 48.389 C 28.325 48.366,31.653 44.729,35.669 40.308 L 42.972 32.268 44.089 31.815 C 50.031 29.409,53.586 31.922,53.542 38.498 C 53.536 39.460,53.480 40.368,53.418 40.514 C 53.356 40.660,49.401 44.892,44.628 49.918 C 39.855 54.944,35.958 59.092,35.968 59.135 C 35.977 59.179,39.752 63.666,44.356 69.106 L 52.727 78.999 52.727 79.882 C 52.727 84.056,47.547 87.557,42.149 87.033 C 39.936 86.818,40.567 87.464,33.816 78.507 C 30.460 74.055,27.695 70.431,27.672 70.455 C 27.649 70.478,27.883 73.881,28.193 78.017 C 28.503 82.153,28.757 85.671,28.758 85.836 C 28.765 86.886,22.787 88.156,19.560 87.790 C 16.852 87.482,15.496 86.799,14.666 85.321 L 14.172 84.444 14.375 59.040 L 14.578 33.636 15.167 32.915 C 17.070 30.584,21.597 29.494,25.292 30.477 M96.735 30.889 C 98.464 32.945,97.969 39.068,95.901 41.212 C 94.560 42.602,95.137 42.528,84.652 42.667 C 79.528 42.735,75.309 42.818,75.275 42.851 C 75.198 42.929,75.875 49.810,75.970 49.907 C 76.009 49.947,78.661 50.069,81.863 50.177 C 85.066 50.286,87.819 50.430,87.982 50.497 C 89.303 51.042,90.056 56.935,89.114 59.358 C 88.538 60.841,88.781 60.772,83.719 60.891 C 81.264 60.948,78.364 61.041,77.273 61.096 L 75.289 61.197 75.395 64.524 C 75.453 66.354,75.509 68.762,75.519 69.876 L 75.537 71.901 85.534 71.901 L 95.531 71.901 96.030 72.769 C 98.088 76.344,97.611 82.158,94.998 85.352 L 94.609 85.828 79.494 86.130 C 71.182 86.296,63.878 86.435,63.264 86.439 L 62.149 86.446 62.149 58.678 C 62.149 43.405,62.167 30.896,62.190 30.880 C 62.224 30.857,72.567 30.714,93.994 30.443 L 96.334 30.413 96.735 30.889 M148.715 30.674 C 151.445 31.238,153.288 32.657,153.887 34.654 C 154.053 35.210,144.452 77.474,142.300 85.658 C 141.795 87.576,125.265 88.424,123.148 86.640 C 122.914 86.443,121.844 83.215,119.415 75.372 C 112.428 52.817,107.938 38.570,106.761 35.222 L 106.272 33.833 106.626 33.456 C 108.956 30.976,118.864 29.767,122.455 31.524 L 123.057 31.818 127.346 47.480 C 129.705 56.094,131.685 63.085,131.745 63.017 C 131.804 62.949,133.511 55.938,135.537 47.438 C 137.564 38.938,139.331 31.856,139.465 31.701 C 140.373 30.647,145.714 30.054,148.715 30.674 M193.999 30.970 C 196.903 33.791,197.127 39.254,194.505 43.284 L 193.820 44.337 189.693 44.269 L 185.567 44.201 185.676 51.729 C 185.736 55.869,185.785 61.990,185.785 65.331 L 185.785 71.405 190.474 71.405 L 195.162 71.405 195.676 72.553 C 197.690 77.058,197.637 82.941,195.557 85.695 L 194.904 86.561 193.625 86.669 C 192.922 86.728,186.365 86.777,179.054 86.777 L 165.762 86.777 165.049 86.286 C 162.252 84.362,161.859 78.485,164.166 73.098 L 164.714 71.818 166.365 71.708 C 167.273 71.648,169.039 71.547,170.289 71.485 L 172.562 71.371 172.594 58.413 C 172.612 51.286,172.630 45.213,172.635 44.917 L 172.645 44.380 168.787 44.298 L 164.929 44.215 164.595 43.802 C 161.261 39.682,161.580 33.069,165.220 30.819 L 165.868 30.419 179.752 30.518 C 193.635 30.617,193.636 30.617,193.999 30.970 M376.990 30.790 C 378.752 32.665,378.358 38.770,376.325 41.079 C 374.979 42.609,375.567 42.526,364.982 42.667 C 359.859 42.735,355.635 42.822,355.596 42.861 C 355.512 42.946,356.197 49.802,356.300 49.907 C 356.339 49.947,358.991 50.069,362.194 50.177 C 368.827 50.402,368.449 50.329,369.014 51.485 C 370.189 53.886,370.155 58.603,368.952 60.294 L 368.607 60.778 364.097 60.886 C 361.616 60.946,358.674 61.041,357.559 61.098 L 355.532 61.202 355.614 61.965 C 355.660 62.384,355.744 64.791,355.801 67.313 L 355.905 71.898 365.917 71.941 L 375.928 71.983 376.565 73.166 C 378.400 76.579,377.823 82.240,375.322 85.352 L 374.939 85.828 359.825 86.130 C 351.512 86.296,344.209 86.435,343.595 86.439 L 342.479 86.446 342.479 58.678 C 342.479 43.405,342.498 30.896,342.521 30.880 C 342.555 30.856,351.126 30.738,374.310 30.443 C 376.537 30.414,376.652 30.429,376.990 30.790 M313.908 30.750 C 319.588 31.319,325.420 34.123,326.099 36.612 C 326.860 39.402,325.635 44.353,323.769 46.031 C 322.408 47.255,321.586 47.341,318.264 46.607 C 312.798 45.399,308.125 46.750,305.517 50.293 C 302.596 54.261,301.937 63.919,304.272 68.545 C 307.442 74.825,314.734 75.093,319.012 69.086 C 319.434 68.492,319.642 68.511,316.364 68.848 C 312.877 69.206,311.899 68.981,310.620 67.528 C 308.395 65.001,308.818 57.716,311.281 56.132 C 311.600 55.927,333.453 56.059,333.676 56.268 C 333.882 56.461,334.328 85.256,334.129 85.562 C 332.812 87.590,325.865 88.084,323.111 86.345 L 322.479 85.946 322.479 83.455 L 322.479 80.963 321.777 81.493 C 311.841 88.986,302.624 89.217,296.522 82.127 C 288.640 72.969,287.101 54.264,293.226 42.066 C 297.573 33.410,304.210 29.779,313.908 30.750 " stroke="none" fill="#000000" fill-rule="evenodd"></path></g></svg>