<?xml version="1.0" standalone="no"?>
<!DOCTYPE svg PUBLIC "-//W3C//DTD SVG 20010904//EN"
 "http://www.w3.org/TR/2001/REC-SVG-20010904/DTD/svg10.dtd">
<svg version="1.0" xmlns="http://www.w3.org/2000/svg"
 width="382.000000pt" height="546.000000pt" viewBox="0 0 382.000000 546.000000"
 preserveAspectRatio="xMidYMid meet">
<metadata>
Created by potrace 1.15, written by Peter Selinger 2001-2017
</metadata>
<g transform="translate(0.000000,546.000000) scale(0.100000,-0.100000)"
fill="#000000" stroke="none">
<path d="M860 5002 c0 -10 -9 -24 -20 -32 -11 -8 -20 -21 -20 -28 0 -8 -13
-27 -30 -42 -16 -15 -30 -34 -30 -42 0 -7 -9 -20 -20 -28 -11 -8 -20 -21 -20
-30 0 -9 -9 -22 -20 -30 -11 -8 -20 -21 -20 -30 0 -9 -9 -22 -20 -30 -11 -8
-20 -21 -20 -30 0 -9 -9 -22 -20 -30 -18 -13 -20 -26 -20 -151 0 -101 -3 -139
-12 -142 -10 -4 -9 -8 2 -17 11 -9 12 -13 3 -17 -10 -3 -13 -68 -13 -274 0
-173 -4 -269 -10 -269 -6 0 -10 -40 -10 -100 0 -60 -4 -100 -10 -100 -5 0 -10
-9 -10 -20 0 -11 -4 -20 -10 -20 -5 0 -10 -13 -10 -30 0 -16 -4 -30 -10 -30
-5 0 -10 -9 -10 -20 0 -11 -4 -20 -10 -20 -5 0 -10 -9 -10 -20 0 -11 -4 -20
-10 -20 -5 0 -10 -13 -10 -30 0 -16 -4 -30 -10 -30 -5 0 -10 -9 -10 -20 0 -11
-4 -20 -10 -20 -5 0 -10 -13 -10 -30 0 -16 -4 -30 -10 -30 -5 0 -10 -9 -10
-20 0 -11 -4 -20 -10 -20 -5 0 -10 -9 -10 -20 0 -11 -4 -20 -10 -20 -5 0 -10
-18 -10 -40 0 -38 2 -40 30 -40 17 0 30 5 30 10 0 6 27 10 60 10 53 0 60 -2
60 -20 0 -11 -4 -20 -10 -20 -5 0 -10 -18 -10 -40 0 -22 -4 -40 -10 -40 -5 0
-10 -18 -10 -40 0 -22 -4 -40 -10 -40 -5 0 -10 -18 -10 -40 0 -22 -4 -40 -10
-40 -5 0 -10 -22 -10 -50 l0 -50 50 0 c49 0 50 -1 50 -30 0 -16 -4 -30 -10
-30 -6 0 -10 -27 -10 -60 0 -33 -4 -60 -10 -60 -5 0 -10 -22 -10 -50 0 -27 -4
-50 -10 -50 -6 0 -10 -27 -10 -60 0 -33 -4 -60 -10 -60 -6 0 -10 -27 -10 -60
0 -33 -4 -60 -10 -60 -5 0 -10 -12 -10 -26 0 -17 16 -41 50 -74 34 -33 50 -57
50 -74 0 -14 5 -26 10 -26 6 0 10 -27 10 -60 0 -33 4 -60 10 -60 6 0 10 -30
10 -70 0 -40 4 -70 10 -70 6 0 10 -27 10 -60 0 -33 4 -60 10 -60 6 0 10 -30
10 -70 0 -40 4 -70 10 -70 6 0 10 -13 10 -28 0 -16 8 -34 20 -42 11 -8 20 -22
20 -32 0 -10 5 -18 10 -18 6 0 10 -9 10 -20 0 -11 5 -20 10 -20 6 0 10 -9 10
-20 0 -11 5 -20 10 -20 6 0 10 -9 10 -20 0 -11 5 -20 10 -20 6 0 10 -8 10 -18
0 -10 9 -24 20 -32 11 -8 20 -22 20 -32 0 -10 5 -18 10 -18 6 0 10 -9 10 -20
0 -11 5 -20 10 -20 6 0 10 -9 10 -20 0 -11 5 -20 10 -20 6 0 10 -7 10 -16 0
-18 24 -44 40 -44 7 0 25 -13 40 -30 15 -16 33 -30 40 -30 6 0 29 -18 50 -40
21 -22 44 -40 50 -40 7 0 25 -13 40 -30 15 -16 33 -30 40 -30 7 0 25 -13 40
-30 15 -16 33 -30 40 -30 7 0 25 -13 40 -30 15 -16 33 -30 40 -30 6 0 29 -18
50 -40 21 -22 44 -40 50 -40 7 0 25 -13 40 -30 15 -16 33 -30 40 -30 7 0 25
-13 40 -30 15 -16 33 -30 40 -30 7 0 25 -13 40 -30 15 -16 33 -30 40 -30 7 0
25 -13 40 -30 15 -16 33 -30 40 -30 6 0 29 -18 50 -40 43 -45 77 -51 100 -20
8 11 21 20 28 20 8 0 27 14 42 30 15 17 33 30 40 30 6 0 29 18 50 40 21 22 44
40 50 40 7 0 25 14 40 30 15 17 33 30 40 30 6 0 29 18 50 40 21 22 44 40 50
40 7 0 25 14 40 30 15 17 33 30 40 30 7 0 25 14 40 30 15 17 33 30 40 30 6 0
29 18 50 40 21 22 44 40 50 40 7 0 25 14 40 30 15 17 33 30 40 30 6 0 29 18
50 40 21 22 44 40 50 40 7 0 25 14 40 30 15 17 35 30 44 30 9 0 16 8 16 18 0
10 9 24 20 32 11 8 20 22 20 32 0 10 5 18 10 18 6 0 10 9 10 20 0 11 5 20 10
20 6 0 10 9 10 20 0 11 5 20 10 20 6 0 10 9 10 20 0 11 5 20 10 20 6 0 10 8
10 18 0 10 9 24 20 32 11 8 20 22 20 32 0 10 5 18 10 18 6 0 10 9 10 20 0 11
5 20 10 20 6 0 10 9 10 20 0 11 5 20 10 20 6 0 10 9 10 20 0 11 5 20 10 20 6
0 10 18 10 40 0 22 5 40 10 40 6 0 10 40 10 100 0 60 4 100 10 100 6 0 10 43
10 110 0 67 4 110 10 110 6 0 10 20 10 45 0 44 4 50 70 115 64 63 86 100 60
100 -6 0 -10 40 -10 100 0 60 -4 100 -10 100 -6 0 -10 37 -10 90 0 53 -4 90
-10 90 -6 0 -10 30 -10 70 l0 70 40 0 c38 0 40 2 40 30 0 17 -4 30 -10 30 -5
0 -10 23 -10 50 0 28 -4 50 -10 50 -5 0 -10 18 -10 40 0 22 -4 40 -10 40 -5 0
-10 18 -10 40 0 22 -4 40 -10 40 -5 0 -10 14 -10 30 0 29 1 30 50 30 28 0 50
-4 50 -10 0 -5 18 -10 40 -10 38 0 40 2 40 30 0 17 -4 30 -10 30 -5 0 -10 9
-10 20 0 11 -4 20 -10 20 -5 0 -10 14 -10 30 0 17 -4 30 -10 30 -5 0 -10 9
-10 20 0 11 -4 20 -10 20 -5 0 -10 9 -10 20 0 11 -4 20 -10 20 -5 0 -10 14
-10 30 0 17 -4 30 -10 30 -5 0 -10 9 -10 20 0 11 -4 20 -10 20 -5 0 -10 14
-10 30 0 17 -4 30 -10 30 -5 0 -10 9 -10 20 0 11 -4 20 -10 20 -5 0 -10 9 -10
20 0 11 -4 20 -10 20 -5 0 -10 14 -10 30 0 17 -4 30 -10 30 -6 0 -10 97 -10
270 0 173 -4 270 -10 270 -6 0 -10 83 -10 230 0 147 -4 230 -10 230 -5 0 -10
8 -10 18 0 10 -9 24 -20 32 -11 8 -20 21 -20 30 0 9 -9 22 -20 30 -11 8 -20
21 -20 30 0 9 -9 22 -20 30 -11 8 -20 21 -20 30 0 9 -9 22 -20 30 -11 8 -20
21 -20 28 0 8 -13 27 -30 42 -17 15 -30 33 -30 39 0 15 -46 61 -60 61 -14 0
-60 -46 -60 -60 0 -6 -45 -55 -100 -110 -55 -55 -100 -104 -100 -110 0 -6 -40
-51 -90 -100 -49 -49 -90 -94 -90 -100 0 -16 -128 -140 -145 -140 -8 0 -15 5
-15 10 0 6 -18 10 -40 10 -22 0 -40 5 -40 10 0 6 -113 10 -320 10 -207 0 -320
-4 -320 -10 0 -5 -13 -10 -29 -10 -16 0 -31 -5 -33 -12 -5 -13 -198 175 -198
192 0 6 -45 55 -100 110 -55 55 -100 104 -100 110 0 16 -188 200 -205 200 -8
0 -15 -8 -15 -18z m26 -76 c8 -8 14 -26 14 -40 0 -14 5 -26 10 -26 6 0 10 -18
10 -40 0 -22 5 -40 10 -40 6 0 10 -13 10 -30 0 -16 5 -30 10 -30 6 0 10 -13
10 -30 0 -16 5 -30 10 -30 6 0 10 -18 10 -40 0 -22 5 -40 10 -40 6 0 10 -13
10 -30 0 -16 5 -30 10 -30 6 0 10 -13 10 -30 0 -16 5 -30 10 -30 6 0 10 -18
10 -40 0 -22 5 -40 10 -40 6 0 10 -13 10 -30 0 -16 5 -30 10 -30 6 0 10 -13
10 -30 0 -16 5 -30 10 -30 6 0 10 -18 10 -40 0 -22 5 -40 10 -40 6 0 10 -13
10 -30 0 -16 5 -30 10 -30 6 0 10 -16 10 -36 0 -35 -18 -64 -40 -64 -7 0 -25
-13 -40 -30 -15 -16 -33 -30 -40 -30 -7 0 -25 -13 -40 -30 -15 -16 -33 -30
-40 -30 -7 0 -25 -13 -40 -30 -15 -16 -33 -30 -40 -30 -7 0 -25 -13 -40 -30
-15 -16 -33 -30 -40 -30 -7 0 -25 -13 -40 -30 -15 -16 -34 -30 -42 -30 -7 0
-20 -9 -28 -20 -8 -11 -22 -20 -32 -20 -10 0 -18 -4 -18 -10 0 -5 -4 -10 -10
-10 -6 0 -10 30 -10 70 0 40 4 70 10 70 6 0 10 100 10 280 0 180 4 280 10 280
6 0 10 50 10 130 0 80 4 130 10 130 6 0 10 8 10 18 0 10 9 24 20 32 11 8 20
21 20 30 0 9 9 22 20 30 11 8 20 21 20 30 0 9 9 22 20 30 11 8 20 21 20 28 0
8 14 27 30 42 17 15 30 33 30 39 0 11 20 40 28 41 2 0 10 -6 18 -14z m2014 -2
c0 -9 14 -29 30 -44 17 -15 30 -34 30 -42 0 -7 9 -20 20 -28 11 -8 20 -21 20
-30 0 -9 9 -22 20 -30 11 -8 20 -21 20 -30 0 -9 9 -22 20 -30 11 -8 20 -21 20
-30 0 -9 9 -22 20 -30 19 -14 20 -26 20 -222 0 -132 4 -208 10 -208 6 0 10
-97 10 -270 0 -148 -3 -270 -6 -270 -3 0 -19 14 -34 30 -15 17 -33 30 -40 30
-7 0 -25 14 -40 30 -15 17 -33 30 -40 30 -7 0 -25 14 -40 30 -15 17 -33 30
-40 30 -7 0 -25 14 -40 30 -15 17 -33 30 -40 30 -7 0 -25 14 -40 30 -15 17
-33 30 -40 30 -7 0 -25 14 -40 30 -15 17 -33 30 -40 30 -22 0 -40 29 -40 64 0
20 5 36 10 36 6 0 10 14 10 30 0 17 5 30 10 30 6 0 10 18 10 40 0 22 5 40 10
40 6 0 10 14 10 30 0 17 5 30 10 30 6 0 10 18 10 40 0 22 5 40 10 40 6 0 10
14 10 30 0 17 5 30 10 30 6 0 10 18 10 40 0 22 5 40 10 40 6 0 10 14 10 30 0
17 5 30 10 30 6 0 10 14 10 30 0 17 5 30 10 30 6 0 10 18 10 40 0 22 5 40 10
40 6 0 10 14 10 30 0 17 5 30 10 30 6 0 10 18 10 40 0 22 5 40 10 40 6 0 10
14 10 30 0 23 4 30 20 30 12 0 20 -7 20 -16z m-1875 -99 c41 -41 75 -79 75
-85 0 -6 41 -51 90 -100 50 -49 90 -94 90 -100 0 -6 36 -46 80 -90 58 -58 80
-86 80 -105 0 -14 5 -25 10 -25 6 0 10 -13 10 -30 0 -16 5 -30 10 -30 6 0 10
-13 10 -30 0 -16 5 -30 10 -30 6 0 10 -18 10 -40 0 -22 5 -40 10 -40 6 0 10
-13 10 -30 0 -16 5 -30 10 -30 6 0 10 -13 10 -30 0 -16 5 -30 10 -30 6 0 10
-13 10 -30 0 -16 5 -30 10 -30 6 0 10 -13 10 -30 0 -16 5 -30 10 -30 6 0 10
-18 10 -40 0 -30 -4 -40 -16 -40 -9 0 -29 -13 -44 -30 -15 -16 -35 -30 -44
-30 -9 0 -16 -4 -16 -10 0 -5 -7 -10 -15 -10 -18 0 -65 44 -65 61 0 6 -13 24
-30 39 -16 15 -30 33 -30 40 0 7 -14 25 -30 40 -17 15 -30 33 -30 40 0 6 -18
29 -40 50 -22 21 -40 46 -40 54 0 9 -4 16 -10 16 -5 0 -10 14 -10 30 0 17 -4
30 -10 30 -5 0 -10 14 -10 30 0 17 -4 30 -10 30 -5 0 -10 18 -10 40 0 22 -4
40 -10 40 -5 0 -10 14 -10 30 0 17 -4 30 -10 30 -5 0 -10 14 -10 30 0 17 -4
30 -10 30 -5 0 -10 18 -10 40 0 22 -4 40 -10 40 -5 0 -10 14 -10 30 0 17 -4
30 -10 30 -5 0 -10 18 -10 40 0 22 -4 40 -10 40 -5 0 -10 14 -10 30 0 17 -4
30 -10 30 -5 0 -10 14 -10 30 0 17 -4 30 -10 30 -5 0 -10 18 -10 40 0 22 -4
40 -10 40 -5 0 -10 14 -10 30 0 17 -4 30 -10 30 -5 0 -10 9 -10 20 0 11 2 20
5 20 3 0 39 -34 80 -75z m1795 65 c0 -5 -4 -10 -10 -10 -5 0 -10 -18 -10 -40
0 -22 -4 -40 -10 -40 -5 0 -10 -13 -10 -30 0 -16 -4 -30 -10 -30 -5 0 -10 -13
-10 -30 0 -16 -4 -30 -10 -30 -5 0 -10 -18 -10 -40 0 -22 -4 -40 -10 -40 -5 0
-10 -13 -10 -30 0 -16 -4 -30 -10 -30 -5 0 -10 -18 -10 -40 0 -22 -4 -40 -10
-40 -5 0 -10 -13 -10 -30 0 -16 -4 -30 -10 -30 -5 0 -10 -18 -10 -40 0 -22 -4
-40 -10 -40 -5 0 -10 -13 -10 -30 0 -16 -4 -30 -10 -30 -5 0 -10 -13 -10 -30
0 -16 -4 -30 -10 -30 -5 0 -10 -18 -10 -40 0 -22 -4 -40 -10 -40 -5 0 -10 -13
-10 -30 0 -16 -4 -30 -10 -30 -5 0 -10 -7 -10 -16 0 -8 -18 -33 -40 -54 -22
-21 -40 -44 -40 -50 0 -7 -13 -25 -30 -40 -16 -15 -30 -33 -30 -40 0 -7 -13
-25 -30 -40 -16 -15 -30 -33 -30 -39 0 -15 -46 -61 -60 -61 -7 0 -29 18 -50
40 -21 22 -46 40 -54 40 -12 0 -16 10 -16 40 0 22 5 40 10 40 6 0 10 18 10 40
0 22 5 40 10 40 6 0 10 14 10 30 0 17 5 30 10 30 6 0 10 18 10 40 0 22 5 40
10 40 6 0 10 18 10 40 0 22 5 40 10 40 6 0 10 18 10 40 0 22 5 40 10 40 6 0
10 18 10 40 0 22 5 40 10 40 6 0 10 7 10 16 0 8 23 37 50 64 28 27 50 54 50
60 0 6 41 51 90 100 50 49 90 94 90 100 0 11 200 218 213 219 4 1 7 -3 7 -9z
m-640 -500 c0 -5 16 -10 36 -10 36 0 81 -29 56 -38 -7 -2 -12 -21 -12 -43 0
-21 -4 -39 -10 -39 -5 0 -10 -18 -10 -40 0 -22 -4 -40 -10 -40 -5 0 -10 -18
-10 -40 0 -22 -4 -40 -10 -40 -5 0 -10 -13 -10 -30 0 -16 -4 -30 -10 -30 -5 0
-10 -18 -10 -40 0 -22 -4 -40 -10 -40 -5 0 -10 -18 -10 -40 0 -22 -4 -40 -10
-40 -5 0 -10 -9 -10 -20 0 -17 -7 -20 -40 -20 -22 0 -40 5 -40 10 0 6 -27 10
-60 10 -33 0 -60 4 -60 10 0 6 -27 10 -60 10 -33 0 -60 -4 -60 -10 0 -5 -22
-10 -50 -10 -27 0 -50 -4 -50 -10 0 -5 -18 -10 -40 -10 -33 0 -40 3 -40 20 0
11 -4 20 -10 20 -5 0 -10 14 -10 30 0 17 -4 30 -10 30 -5 0 -10 14 -10 30 0
17 -4 30 -10 30 -5 0 -10 14 -10 30 0 17 -4 30 -10 30 -5 0 -10 18 -10 40 0
22 -4 40 -10 40 -5 0 -10 14 -10 30 0 17 -4 30 -10 30 -5 0 -10 14 -10 30 0
17 -4 30 -10 30 -5 0 -10 14 -10 30 0 17 -4 30 -10 30 -5 0 -10 14 -10 30 0
27 3 30 30 30 17 0 30 5 30 10 0 6 113 10 320 10 207 0 320 -4 320 -10z m-980
-406 c0 -9 14 -29 30 -44 17 -15 30 -33 30 -40 0 -7 14 -25 30 -40 17 -15 30
-33 30 -40 0 -7 14 -25 30 -40 17 -15 30 -34 30 -40 0 -7 9 -21 21 -31 l21
-18 -26 -26 c-14 -14 -30 -25 -36 -25 -14 0 -60 -46 -60 -61 0 -6 -13 -24 -30
-39 -16 -15 -30 -34 -30 -42 0 -7 -9 -20 -20 -28 -11 -8 -20 -21 -20 -28 0 -8
-13 -27 -30 -42 -16 -15 -30 -34 -30 -42 0 -7 -9 -20 -20 -28 -11 -8 -20 -21
-20 -28 0 -8 -13 -27 -30 -42 -16 -15 -30 -34 -30 -42 0 -7 -9 -20 -20 -28
-11 -8 -20 -21 -20 -28 0 -8 -13 -27 -30 -42 -16 -15 -30 -33 -30 -39 0 -17
-87 -101 -105 -101 -8 0 -15 -4 -15 -10 0 -5 -8 -10 -18 -10 -10 0 -24 -9 -32
-20 -8 -11 -22 -20 -32 -20 -10 0 -18 -4 -18 -10 0 -5 -8 -10 -18 -10 -10 0
-24 -9 -32 -20 -8 -11 -22 -20 -32 -20 -10 0 -18 -4 -18 -10 0 -5 -8 -10 -18
-10 -10 0 -24 -9 -32 -20 -8 -11 -18 -20 -22 -20 -4 0 -8 9 -8 20 0 11 5 20
10 20 6 0 10 9 10 20 0 11 5 20 10 20 6 0 10 9 10 20 0 11 5 20 10 20 6 0 10
9 10 20 0 11 5 20 10 20 6 0 10 9 10 20 0 11 5 20 10 20 6 0 10 8 10 18 0 10
9 24 20 32 11 8 20 22 20 32 0 10 5 18 10 18 6 0 10 9 10 20 0 11 5 20 10 20
6 0 10 9 10 20 0 11 5 20 10 20 6 0 10 9 10 20 0 11 5 20 10 20 6 0 10 9 10
20 0 11 5 20 10 20 6 0 10 9 10 20 0 11 5 20 10 20 6 0 10 8 10 18 0 10 9 24
20 32 11 8 20 22 20 32 0 10 5 18 10 18 6 0 10 9 10 20 0 11 5 20 10 20 6 0
10 9 10 20 0 11 5 20 10 20 6 0 10 9 10 20 0 11 5 20 10 20 6 0 10 9 10 20 0
11 5 20 10 20 6 0 10 9 10 20 0 11 5 20 10 20 6 0 10 8 10 18 0 10 9 24 20 32
11 8 20 22 20 32 0 10 5 18 10 18 6 0 10 9 10 20 0 11 5 20 10 20 6 0 10 9 10
20 0 11 5 20 10 20 6 0 10 9 10 20 0 11 5 20 10 20 6 0 10 9 10 20 0 11 5 20
10 20 6 0 10 9 10 20 0 11 5 20 10 20 6 0 10 9 10 20 0 11 5 20 10 20 6 0 10
7 10 15 0 22 22 44 43 45 9 0 17 -7 17 -16z m1406 2 c8 -8 14 -22 14 -30 0 -9
5 -16 10 -16 6 0 10 -9 10 -20 0 -11 5 -20 10 -20 6 0 10 -9 10 -20 0 -11 5
-20 10 -20 6 0 10 -9 10 -20 0 -11 5 -20 10 -20 6 0 10 -9 10 -20 0 -11 5 -20
10 -20 6 0 10 -9 10 -20 0 -11 5 -20 10 -20 6 0 10 -9 10 -20 0 -11 5 -20 10
-20 6 0 10 -9 10 -20 0 -11 5 -20 10 -20 6 0 10 -9 10 -20 0 -11 5 -20 10 -20
6 0 10 -9 10 -20 0 -11 5 -20 10 -20 6 0 10 -8 10 -18 0 -10 9 -24 20 -32 11
-8 20 -22 20 -32 0 -10 5 -18 10 -18 6 0 10 -9 10 -20 0 -11 5 -20 10 -20 6 0
10 -9 10 -20 0 -11 5 -20 10 -20 6 0 10 -9 10 -20 0 -11 5 -20 10 -20 6 0 10
-9 10 -20 0 -11 5 -20 10 -20 6 0 10 -9 10 -20 0 -11 5 -20 10 -20 6 0 10 -9
10 -20 0 -11 5 -20 10 -20 6 0 10 -9 10 -20 0 -11 5 -20 10 -20 6 0 10 -9 10
-20 0 -11 5 -20 10 -20 6 0 10 -9 10 -20 0 -11 5 -20 10 -20 6 0 10 -8 10 -18
0 -10 9 -24 20 -32 11 -8 20 -22 20 -32 0 -10 5 -18 10 -18 6 0 10 -9 10 -20
0 -11 5 -20 10 -20 6 0 10 -9 10 -20 0 -11 5 -20 10 -20 6 0 10 -9 10 -20 0
-11 5 -20 10 -20 6 0 10 -9 10 -20 0 -11 5 -20 10 -20 6 0 10 -9 10 -20 0 -11
-4 -20 -10 -20 -5 0 -10 5 -10 10 0 6 -9 10 -20 10 -11 0 -20 5 -20 10 0 6 -8
10 -18 10 -10 0 -24 9 -32 20 -8 11 -22 20 -32 20 -10 0 -18 5 -18 10 0 6 -8
10 -18 10 -10 0 -24 9 -32 20 -8 11 -22 20 -32 20 -10 0 -18 5 -18 10 0 6 -7
10 -15 10 -18 0 -105 84 -105 101 0 6 -13 24 -30 39 -16 15 -30 34 -30 42 0 7
-9 20 -20 28 -11 8 -20 21 -20 28 0 8 -13 27 -30 42 -16 15 -30 34 -30 42 0 7
-9 20 -20 28 -11 8 -20 21 -20 28 0 8 -13 27 -30 42 -16 15 -30 34 -30 42 0 7
-9 20 -20 28 -11 8 -20 21 -20 28 0 8 -13 27 -30 42 -16 15 -30 33 -30 39 0
15 -46 61 -60 61 -6 0 -22 11 -36 25 l-26 26 21 18 c12 10 21 24 21 31 0 6 14
25 30 40 17 15 30 33 30 40 0 7 14 25 30 40 17 15 30 33 30 39 0 10 78 98 88
100 2 1 10 -5 18 -13z m-1586 -92 c0 -3 -18 -23 -40 -44 -22 -21 -40 -44 -40
-50 0 -6 -27 -38 -60 -70 -33 -32 -60 -64 -60 -70 0 -6 -27 -38 -60 -70 -33
-32 -60 -64 -60 -70 0 -6 -22 -33 -50 -60 -27 -27 -50 -54 -50 -60 0 -6 -27
-38 -60 -70 -33 -32 -60 -66 -60 -74 0 -9 -4 -16 -10 -16 -5 0 -10 9 -10 20 0
11 5 20 10 20 6 0 10 14 10 30 0 17 5 30 10 30 6 0 10 9 10 20 0 11 5 20 10
20 6 0 10 14 10 30 0 17 5 30 10 30 6 0 10 9 10 20 0 11 5 20 10 20 6 0 10 9
10 20 0 11 5 20 10 20 6 0 10 11 10 25 0 27 78 115 103 115 7 0 19 9 27 20 8
11 21 20 28 20 8 0 27 14 42 30 15 17 33 30 40 30 7 0 25 14 40 30 15 17 33
30 40 30 7 0 25 14 40 30 15 17 35 30 44 30 9 0 16 5 16 10 0 6 5 10 10 10 6
0 10 -3 10 -6z m1740 -4 c0 -5 7 -10 16 -10 9 0 29 -13 44 -30 15 -16 33 -30
40 -30 7 0 25 -13 40 -30 15 -16 33 -30 40 -30 7 0 25 -13 40 -30 15 -16 33
-30 40 -30 7 0 25 -13 40 -30 15 -16 33 -30 39 -30 17 0 61 -47 61 -65 0 -8 5
-15 10 -15 6 0 10 -9 10 -20 0 -11 5 -20 10 -20 6 0 10 -13 10 -30 0 -16 5
-30 10 -30 6 0 10 -9 10 -20 0 -11 5 -20 10 -20 6 0 10 -9 10 -20 0 -11 5 -20
10 -20 6 0 10 -13 10 -30 0 -16 5 -30 10 -30 6 0 10 -9 10 -20 0 -11 5 -20 10
-20 6 0 10 -9 10 -20 0 -11 -3 -20 -6 -20 -10 0 -34 28 -34 40 0 6 -27 38 -60
70 -33 32 -60 64 -60 70 0 6 -22 33 -50 60 -27 27 -50 54 -50 60 0 6 -27 38
-60 70 -33 32 -60 64 -60 70 0 6 -22 33 -50 60 -27 27 -50 54 -50 60 0 6 -18
29 -40 50 -41 39 -47 50 -30 50 6 0 10 -4 10 -10z m-820 -60 c0 -6 27 -10 60
-10 33 0 60 -4 60 -10 0 -5 14 -10 30 -10 l30 0 0 -70 c0 -40 -4 -70 -10 -70
-6 0 -10 -27 -10 -60 0 -33 -4 -60 -10 -60 -6 0 -10 -27 -10 -60 0 -33 -4 -60
-10 -60 -6 0 -10 -27 -10 -60 l0 -60 -156 0 c-182 0 -184 1 -184 84 0 31 -4
56 -10 56 -6 0 -10 27 -10 60 0 33 -4 60 -10 60 -6 0 -10 27 -10 60 0 33 -4
60 -10 60 -6 0 -10 27 -10 60 l0 60 30 0 c17 0 30 5 30 10 0 6 23 10 50 10 28
0 50 5 50 10 0 6 27 10 60 10 33 0 60 -4 60 -10z m-920 -20 c0 -5 -4 -10 -10
-10 -5 0 -10 -9 -10 -20 0 -11 -4 -20 -10 -20 -5 0 -10 -9 -10 -20 0 -11 -4
-20 -10 -20 -5 0 -10 -9 -10 -20 0 -11 -4 -20 -10 -20 -5 0 -10 -9 -10 -20 0
-11 -4 -20 -10 -20 -5 0 -10 -9 -10 -20 0 -11 -4 -20 -10 -20 -5 0 -10 -8 -10
-18 0 -10 -9 -24 -20 -32 -11 -8 -20 -20 -20 -28 0 -7 -22 -35 -50 -62 -27
-27 -50 -54 -50 -60 0 -6 -18 -29 -40 -50 -22 -21 -40 -44 -40 -50 0 -6 -22
-33 -50 -60 -27 -27 -50 -54 -50 -60 0 -26 -30 -40 -84 -40 -60 0 -68 7 -36
30 11 8 20 20 20 28 0 7 27 40 60 72 33 32 60 64 60 70 0 6 27 38 60 70 33 32
60 64 60 70 0 6 23 33 50 60 28 27 50 54 50 60 0 6 27 38 60 70 33 32 60 64
60 70 0 12 61 78 73 79 4 1 7 -3 7 -9z m1755 -15 c14 -13 25 -29 25 -35 0 -6
27 -38 60 -70 33 -32 60 -64 60 -70 0 -6 23 -33 50 -60 28 -27 50 -54 50 -60
0 -6 27 -38 60 -70 33 -32 60 -64 60 -70 0 -6 23 -33 50 -60 28 -27 50 -54 50
-60 0 -6 18 -29 40 -50 22 -21 40 -41 40 -44 0 -3 -25 -6 -56 -6 -54 0 -84 14
-84 40 0 6 -18 29 -40 50 -22 21 -40 44 -40 50 0 6 -22 33 -50 60 -27 27 -50
54 -50 60 0 6 -22 33 -50 60 -27 27 -50 55 -50 62 0 8 -9 20 -20 28 -11 8 -20
22 -20 32 0 10 -4 18 -10 18 -5 0 -10 9 -10 20 0 11 -4 20 -10 20 -5 0 -10 9
-10 20 0 11 -4 20 -10 20 -5 0 -10 9 -10 20 0 11 -4 20 -10 20 -5 0 -10 8 -10
18 0 10 -9 24 -20 32 -11 8 -20 22 -20 32 0 24 6 23 35 -7z m-1155 -75 c0 -22
5 -40 10 -40 6 0 10 -27 10 -60 0 -33 4 -60 10 -60 6 0 10 -27 10 -60 0 -33 4
-60 10 -60 6 0 10 -27 10 -60 0 -33 4 -60 10 -60 6 0 10 -13 10 -30 0 -16 -4
-30 -10 -30 -5 0 -10 -18 -10 -40 0 -22 -4 -40 -10 -40 -5 0 -10 -18 -10 -40
0 -22 -4 -40 -10 -40 -5 0 -10 -22 -10 -50 0 -27 -3 -50 -6 -50 -11 0 -34 29
-34 44 0 9 -4 16 -10 16 -5 0 -10 14 -10 30 0 17 -4 30 -10 30 -5 0 -10 9 -10
20 0 11 -4 20 -10 20 -5 0 -10 9 -10 20 0 11 -4 20 -10 20 -5 0 -10 9 -10 20
0 11 -4 20 -10 20 -5 0 -10 14 -10 30 0 17 -4 30 -10 30 -5 0 -10 9 -10 20 0
11 -4 20 -10 20 -5 0 -10 9 -10 20 0 11 -4 20 -10 20 -5 0 -10 14 -10 30 0 17
-4 30 -10 30 -5 0 -10 9 -10 20 0 11 -4 20 -10 20 -5 0 -10 9 -10 20 0 11 -4
20 -10 20 -5 0 -10 13 -10 29 0 16 -6 31 -12 33 -15 5 13 38 32 38 7 0 25 14
40 30 15 17 34 30 42 30 7 0 20 9 28 20 8 11 21 20 30 20 9 0 22 9 30 20 8 11
22 20 32 20 14 0 18 -8 18 -40z m590 20 c8 -11 21 -20 28 -20 7 0 31 -18 52
-40 21 -22 43 -40 50 -40 18 0 66 -53 52 -58 -7 -2 -12 -17 -12 -33 0 -16 -4
-29 -10 -29 -5 0 -10 -9 -10 -20 0 -11 -4 -20 -10 -20 -5 0 -10 -9 -10 -20 0
-11 -4 -20 -10 -20 -5 0 -10 -13 -10 -30 0 -16 -4 -30 -10 -30 -5 0 -10 -9
-10 -20 0 -11 -4 -20 -10 -20 -5 0 -10 -9 -10 -20 0 -11 -4 -20 -10 -20 -5 0
-10 -13 -10 -30 0 -16 -4 -30 -10 -30 -5 0 -10 -9 -10 -20 0 -11 -4 -20 -10
-20 -5 0 -10 -9 -10 -20 0 -11 -4 -20 -10 -20 -5 0 -10 -9 -10 -20 0 -11 -4
-20 -10 -20 -5 0 -10 -13 -10 -30 0 -16 -4 -30 -10 -30 -5 0 -10 -9 -10 -20 0
-24 -6 -25 -26 -6 -9 9 -14 35 -14 70 0 31 -4 56 -10 56 -6 0 -10 50 -10 130
0 80 4 130 10 130 6 0 10 27 10 60 0 33 4 60 10 60 6 0 10 30 10 70 0 40 4 70
10 70 6 0 10 18 10 40 0 32 4 40 18 40 10 0 24 -9 32 -20z m-890 -300 c0 -47
4 -80 10 -80 6 0 10 -27 10 -60 l0 -60 -70 0 c-40 0 -70 4 -70 10 0 6 -18 10
-40 10 -44 0 -50 8 -20 30 11 8 20 21 20 28 0 8 14 27 30 42 17 15 30 33 30
40 0 7 14 25 30 40 17 15 30 33 30 39 0 14 21 40 33 41 4 0 7 -36 7 -80z
m1155 55 c14 -13 25 -30 25 -37 0 -8 9 -20 20 -28 11 -8 20 -21 20 -28 0 -8
14 -27 30 -42 17 -15 30 -34 30 -42 0 -7 9 -20 20 -28 30 -22 24 -30 -20 -30
-22 0 -40 -4 -40 -10 0 -6 -30 -10 -70 -10 l-70 0 0 50 c0 28 5 50 10 50 6 0
10 37 10 90 0 50 2 90 5 90 3 0 17 -11 30 -25z m-1095 -55 c0 -11 5 -20 10
-20 6 0 10 -9 10 -20 0 -11 5 -20 10 -20 6 0 10 -9 10 -20 0 -11 5 -20 10 -20
6 0 10 -13 10 -30 0 -16 5 -30 10 -30 6 0 10 -9 10 -20 0 -11 5 -20 10 -20 6
0 10 -9 10 -20 0 -11 5 -20 10 -20 6 0 10 -13 10 -30 0 -16 5 -30 10 -30 6 0
10 -9 10 -20 0 -11 5 -20 10 -20 6 0 10 -9 10 -20 0 -11 5 -20 10 -20 6 0 10
-9 10 -20 0 -11 5 -20 10 -20 6 0 10 -4 10 -10 0 -18 -35 -11 -50 10 -8 11
-20 20 -28 20 -17 0 -62 45 -62 62 0 8 -9 20 -20 28 -11 8 -20 22 -20 32 0 10
-4 18 -10 18 -6 0 -10 33 -10 80 0 47 -4 80 -10 80 -6 0 -10 27 -10 60 0 33 4
60 10 60 6 0 10 -9 10 -20z m1020 -50 c0 -40 -4 -70 -10 -70 -6 0 -10 -30 -10
-70 0 -40 -4 -70 -10 -70 -5 0 -10 -8 -10 -18 0 -10 -9 -24 -20 -32 -11 -8
-20 -20 -20 -28 0 -17 -25 -42 -42 -42 -8 0 -20 -9 -28 -20 -8 -11 -22 -20
-32 -20 -11 0 -18 7 -18 20 0 11 5 20 10 20 6 0 10 9 10 20 0 11 5 20 10 20 6
0 10 9 10 20 0 11 5 20 10 20 6 0 10 14 10 30 0 17 5 30 10 30 6 0 10 9 10 20
0 11 5 20 10 20 6 0 10 9 10 20 0 11 5 20 10 20 6 0 10 14 10 30 0 17 5 30 10
30 6 0 10 9 10 20 0 11 5 20 10 20 6 0 10 9 10 20 0 11 5 20 10 20 6 0 10 9
10 20 0 11 5 20 10 20 6 0 10 -30 10 -70z m635 -95 c25 -24 45 -49 45 -56 0
-6 18 -28 40 -49 22 -21 40 -46 40 -54 0 -9 5 -16 10 -16 6 0 10 -18 10 -40 0
-22 5 -40 10 -40 6 0 10 -18 10 -40 0 -22 5 -40 10 -40 6 0 10 -13 10 -30 0
-16 -4 -30 -10 -30 -5 0 -10 9 -10 20 0 11 -4 20 -10 20 -5 0 -10 9 -10 20 0
11 -4 20 -10 20 -5 0 -10 9 -10 20 0 11 -4 20 -10 20 -5 0 -10 9 -10 20 0 11
-4 20 -10 20 -5 0 -10 9 -10 20 0 11 -4 20 -10 20 -5 0 -10 9 -10 20 0 11 -4
20 -10 20 -5 0 -10 9 -10 20 0 11 -4 20 -10 20 -5 0 -10 9 -10 20 0 11 -4 20
-10 20 -5 0 -10 9 -10 20 0 11 -4 20 -10 20 -5 0 -10 8 -10 18 0 10 -9 24 -20
32 -19 13 -27 30 -15 30 3 0 26 -20 50 -45z m-2275 15 c0 -5 -4 -10 -10 -10
-5 0 -10 -9 -10 -20 0 -11 -4 -20 -10 -20 -5 0 -10 -8 -10 -18 0 -10 -9 -24
-20 -32 -11 -8 -20 -22 -20 -32 0 -10 -4 -18 -10 -18 -5 0 -10 -9 -10 -20 0
-11 -4 -20 -10 -20 -5 0 -10 -9 -10 -20 0 -11 -4 -20 -10 -20 -5 0 -10 -9 -10
-20 0 -11 -4 -20 -10 -20 -5 0 -10 -9 -10 -20 0 -11 -4 -20 -10 -20 -5 0 -10
-9 -10 -20 0 -11 -4 -20 -10 -20 -5 0 -10 -9 -10 -20 0 -11 -4 -20 -10 -20 -5
0 -10 14 -10 30 0 17 5 30 10 30 6 0 10 18 10 40 0 22 5 40 10 40 6 0 10 14
10 30 0 17 5 30 10 30 6 0 10 7 10 16 0 8 18 33 40 54 22 21 40 43 40 50 0 12
60 78 73 79 4 1 7 -3 7 -9z m1300 -100 c0 -27 5 -50 10 -50 6 0 10 -27 10 -60
0 -33 4 -60 10 -60 6 0 10 -22 10 -50 l0 -50 -220 0 -220 0 0 30 c0 17 5 30
10 30 6 0 10 23 10 50 0 28 5 50 10 50 6 0 10 18 10 40 0 22 5 40 10 40 6 0
10 18 10 40 l0 40 170 0 170 0 0 -50z m-854 -4 c8 -8 14 -22 14 -30 0 -9 5
-16 10 -16 6 0 10 -9 10 -20 0 -11 5 -20 10 -20 6 0 10 -7 10 -16 0 -30 27
-44 84 -44 31 0 56 -4 56 -10 0 -5 9 -10 20 -10 11 0 20 -4 20 -10 0 -5 8 -10
18 -10 10 0 24 -9 32 -20 8 -11 20 -20 28 -20 12 0 62 -43 62 -55 0 -3 -9 -5
-20 -5 -11 0 -20 -4 -20 -10 0 -5 -13 -10 -30 -10 -16 0 -30 -4 -30 -10 0 -5
-9 -10 -20 -10 -11 0 -20 -4 -20 -10 0 -5 -13 -10 -30 -10 -16 0 -30 -4 -30
-10 0 -5 -9 -10 -20 -10 -11 0 -20 -4 -20 -10 0 -5 -13 -10 -30 -10 -16 0 -30
-4 -30 -10 0 -5 -13 -10 -30 -10 -16 0 -30 -4 -30 -10 0 -22 -34 -8 -70 30
-21 22 -43 40 -49 40 -18 0 -166 153 -153 158 7 2 12 10 12 19 0 8 14 28 30
43 17 15 30 34 30 42 0 7 9 20 20 28 11 8 20 20 20 28 0 7 6 19 13 27 16 19
114 20 133 1z m1480 0 c8 -8 14 -21 14 -28 0 -8 9 -20 20 -28 11 -8 20 -21 20
-28 0 -8 14 -27 30 -42 17 -15 30 -35 30 -43 0 -9 5 -17 12 -19 13 -5 -155
-178 -173 -178 -6 0 -24 -13 -39 -30 -27 -29 -60 -40 -60 -20 0 6 -13 10 -30
10 -16 0 -30 5 -30 10 0 6 -13 10 -30 10 -16 0 -30 5 -30 10 0 6 -9 10 -20 10
-11 0 -20 5 -20 10 0 6 -13 10 -30 10 -16 0 -30 5 -30 10 0 6 -13 10 -30 10
-16 0 -30 5 -30 10 0 6 -9 10 -20 10 -11 0 -20 5 -20 10 0 6 -9 10 -20 10 -11
0 -20 2 -20 5 0 12 70 75 82 75 8 0 20 9 28 20 8 12 26 20 42 20 15 0 28 5 28
10 0 6 25 10 56 10 57 0 84 14 84 44 0 9 5 16 10 16 6 0 10 9 10 20 0 11 5 20
10 20 6 0 10 7 10 15 0 9 6 22 13 30 16 19 114 20 133 1z m-1780 -260 c8 -8
14 -26 14 -40 0 -14 5 -26 10 -26 6 0 10 -13 10 -30 0 -16 5 -30 10 -30 6 0
10 -13 10 -30 0 -16 5 -30 10 -30 6 0 10 -9 10 -20 0 -19 -7 -20 -110 -20 -67
0 -110 4 -110 10 0 6 -40 10 -100 10 -93 0 -100 1 -100 20 0 13 7 20 18 20 10
0 24 9 32 20 8 11 22 20 32 20 10 0 18 5 18 10 0 6 8 10 18 10 10 0 24 9 32
20 8 11 22 20 32 20 10 0 18 5 18 10 0 6 8 10 18 10 10 0 24 9 32 20 8 11 22
20 32 20 10 0 18 5 18 10 0 15 29 12 46 -4z m1994 4 c0 -5 8 -10 18 -10 10 0
24 -9 32 -20 8 -11 22 -20 32 -20 10 0 18 -4 18 -10 0 -5 8 -10 18 -10 10 0
24 -9 32 -20 8 -11 22 -20 32 -20 10 0 18 -4 18 -10 0 -5 8 -10 18 -10 10 0
24 -9 32 -20 8 -11 22 -20 32 -20 11 0 18 -7 18 -20 0 -19 -7 -20 -90 -20 -53
0 -90 -4 -90 -10 0 -6 -37 -10 -90 -10 -53 0 -90 -4 -90 -10 0 -5 -13 -10 -30
-10 -27 0 -30 3 -30 30 0 17 5 30 10 30 6 0 10 14 10 30 0 17 5 30 10 30 6 0
10 14 10 30 0 17 5 30 10 30 6 0 10 11 10 25 0 14 6 32 13 40 14 16 47 20 47
5z m-1900 -60 c15 -16 33 -30 40 -30 6 0 38 -27 70 -60 50 -51 64 -60 94 -60
20 0 36 5 36 10 0 6 9 10 20 10 11 0 20 5 20 10 0 6 14 10 30 10 17 0 30 5 30
10 0 6 14 10 30 10 17 0 30 5 30 10 0 6 9 10 20 10 11 0 20 5 20 10 0 6 14 10
30 10 17 0 30 5 30 10 0 6 9 10 20 10 11 0 20 5 20 10 0 6 14 10 30 10 28 0
30 -2 30 -40 0 -22 -4 -40 -10 -40 -5 0 -10 -22 -10 -50 0 -27 -4 -50 -10 -50
-6 0 -10 -27 -10 -60 0 -33 -4 -60 -10 -60 -5 0 -10 -22 -10 -48 0 -36 -5 -51
-20 -62 -11 -8 -20 -21 -20 -30 0 -9 -9 -22 -20 -30 -11 -8 -20 -22 -20 -32 0
-10 -4 -18 -10 -18 -5 0 -10 -8 -10 -18 0 -10 -9 -24 -20 -32 -11 -8 -20 -21
-20 -30 0 -9 -9 -22 -20 -30 -11 -8 -20 -20 -20 -28 0 -7 -7 -20 -15 -28 -13
-13 -26 -3 -110 80 -52 53 -95 103 -95 111 0 8 -4 15 -10 15 -5 0 -10 14 -10
30 0 17 -4 30 -10 30 -5 0 -10 14 -10 30 0 17 -4 30 -10 30 -5 0 -10 14 -10
30 0 17 -4 30 -10 30 -5 0 -10 14 -10 30 0 17 -4 30 -10 30 -5 0 -10 14 -10
30 0 17 -4 30 -10 30 -5 0 -10 14 -10 30 0 17 -4 30 -10 30 -5 0 -10 14 -10
30 0 17 -4 30 -10 30 -5 0 -10 14 -10 30 0 17 -4 30 -10 30 -5 0 -10 9 -10 20
0 27 7 25 40 -10z m1800 10 c0 -11 -4 -20 -10 -20 -5 0 -10 -13 -10 -30 0 -16
-4 -30 -10 -30 -5 0 -10 -13 -10 -30 0 -16 -4 -30 -10 -30 -5 0 -10 -13 -10
-30 0 -16 -4 -30 -10 -30 -5 0 -10 -13 -10 -30 0 -16 -4 -30 -10 -30 -5 0 -10
-13 -10 -30 0 -16 -4 -30 -10 -30 -5 0 -10 -13 -10 -30 0 -16 -4 -30 -10 -30
-5 0 -10 -13 -10 -30 0 -16 -4 -30 -10 -30 -5 0 -10 -13 -10 -30 0 -16 -4 -30
-10 -30 -5 0 -10 -9 -10 -20 0 -11 -4 -20 -10 -20 -5 0 -10 -9 -10 -20 0 -11
-7 -20 -15 -20 -9 0 -47 -32 -86 -71 -61 -62 -71 -69 -84 -55 -8 8 -15 21 -15
28 0 8 -9 20 -20 28 -11 8 -20 21 -20 30 0 9 -9 22 -20 30 -11 8 -20 22 -20
32 0 10 -4 18 -10 18 -5 0 -10 8 -10 18 0 10 -9 24 -20 32 -11 8 -20 21 -20
30 0 9 -9 22 -20 30 -15 11 -20 26 -20 62 0 26 -4 48 -10 48 -6 0 -10 27 -10
60 0 33 -4 60 -10 60 -5 0 -10 23 -10 50 0 28 -4 50 -10 50 -5 0 -10 18 -10
40 0 38 2 40 30 40 17 0 30 -4 30 -10 0 -5 9 -10 20 -10 11 0 20 -4 20 -10 0
-5 14 -10 30 -10 17 0 30 -4 30 -10 0 -5 9 -10 20 -10 11 0 20 -4 20 -10 0 -5
14 -10 30 -10 17 0 30 -4 30 -10 0 -5 14 -10 30 -10 17 0 30 -4 30 -10 0 -5 9
-10 20 -10 11 0 20 -4 20 -10 0 -5 16 -10 36 -10 30 0 44 9 94 60 32 33 65 60
72 60 7 0 24 14 38 30 30 35 40 37 40 10z m-1140 -80 c0 -47 4 -80 10 -80 6 0
10 -37 10 -90 0 -53 -4 -90 -10 -90 -5 0 -10 -18 -10 -40 0 -22 -4 -40 -10
-40 -5 0 -10 -22 -10 -50 0 -27 -4 -50 -10 -50 -5 0 -10 -22 -10 -50 0 -27 -4
-50 -10 -50 -5 0 -10 -16 -10 -36 0 -55 -16 -64 -114 -64 -51 0 -86 -4 -86
-10 0 -5 -4 -10 -10 -10 -18 0 -11 35 10 50 11 8 20 21 20 30 0 9 9 22 20 30
11 8 20 21 20 30 0 9 9 22 20 30 11 8 20 22 20 32 0 10 5 18 10 18 6 0 10 8
10 18 0 10 9 24 20 32 11 8 20 22 20 32 0 10 5 18 10 18 6 0 10 23 10 50 0 28
5 50 10 50 6 0 10 27 10 60 0 33 4 60 10 60 6 0 10 23 10 50 0 28 5 50 10 50
6 0 10 23 10 50 0 28 5 50 10 50 6 0 10 -33 10 -80z m400 20 c0 -33 -4 -60
-10 -60 -6 0 -10 -47 -10 -120 0 -73 4 -120 10 -120 6 0 10 -27 10 -60 0 -33
4 -60 10 -60 6 0 10 -22 10 -50 0 -27 5 -50 10 -50 6 0 10 -18 10 -40 0 -22
-3 -40 -6 -40 -3 0 -23 18 -44 40 -34 35 -44 40 -84 40 -25 0 -46 5 -46 10 0
6 -22 10 -50 10 -27 0 -50 -4 -50 -10 0 -5 -16 -10 -36 -10 -29 0 -44 -8 -84
-50 -27 -27 -51 -50 -54 -50 -3 0 -6 14 -6 30 0 17 5 30 10 30 6 0 10 23 10
50 0 28 5 50 10 50 6 0 10 18 10 40 0 22 5 40 10 40 6 0 10 23 10 50 0 28 5
50 10 50 6 0 10 37 10 90 0 53 -4 90 -10 90 -6 0 -10 33 -10 80 l0 80 180 0
180 0 0 -60z m60 10 c0 -27 5 -50 10 -50 6 0 10 -22 10 -50 0 -27 5 -50 10
-50 6 0 10 -27 10 -60 0 -33 4 -60 10 -60 6 0 10 -22 10 -50 0 -27 5 -50 10
-50 6 0 10 -8 10 -18 0 -10 9 -24 20 -32 11 -8 20 -21 20 -30 0 -9 9 -22 20
-30 11 -8 20 -22 20 -32 0 -10 5 -18 10 -18 6 0 10 -8 10 -18 0 -10 9 -24 20
-32 11 -8 20 -21 20 -30 0 -9 9 -22 20 -30 11 -8 20 -22 20 -32 0 -15 -9 -18
-50 -18 -27 0 -50 5 -50 10 0 6 -27 10 -60 10 -53 0 -60 2 -60 20 0 11 -4 20
-10 20 -5 0 -10 23 -10 50 0 28 -4 50 -10 50 -6 0 -10 27 -10 60 0 33 -4 60
-10 60 -5 0 -10 23 -10 50 0 28 -4 50 -10 50 -6 0 -10 47 -10 120 0 73 4 120
10 120 6 0 10 27 10 60 0 33 4 60 10 60 6 0 10 -22 10 -50z m-1480 -180 c0
-16 5 -30 10 -30 6 0 10 -9 10 -20 0 -11 5 -20 10 -20 6 0 10 -13 10 -30 0
-16 5 -30 10 -30 6 0 10 -9 10 -20 0 -11 5 -20 10 -20 6 0 10 -9 10 -20 0 -11
5 -20 10 -20 6 0 10 -13 10 -30 0 -16 5 -30 10 -30 6 0 10 -9 10 -20 0 -11 5
-20 10 -20 6 0 10 -9 10 -20 0 -11 5 -20 10 -20 6 0 10 -4 10 -10 0 -5 -9 -10
-20 -10 -11 0 -20 -4 -20 -10 0 -5 -9 -10 -20 -10 -11 0 -20 -4 -20 -10 0 -5
-13 -10 -30 -10 -16 0 -30 -4 -30 -10 0 -5 -13 -10 -30 -10 -16 0 -30 -4 -30
-10 0 -5 -13 -10 -30 -10 -16 0 -30 -4 -30 -10 0 -5 -4 -10 -10 -10 -6 0 -10
27 -10 60 0 33 4 60 10 60 6 0 10 27 10 60 0 33 4 60 10 60 6 0 10 23 10 50 0
28 5 50 10 50 6 0 10 27 10 60 0 33 4 60 10 60 6 0 10 9 10 20 0 13 7 20 20
20 16 0 20 -7 20 -30z m120 20 c0 -6 43 -10 110 -10 103 0 110 -1 110 -20 0
-11 -4 -20 -10 -20 -5 0 -10 -9 -10 -20 0 -11 -4 -20 -10 -20 -5 0 -10 -9 -10
-20 0 -11 -4 -20 -10 -20 -5 0 -10 -9 -10 -20 0 -11 -4 -20 -10 -20 -5 0 -10
-9 -10 -20 0 -11 -4 -20 -10 -20 -5 0 -10 -9 -10 -20 0 -11 -4 -20 -10 -20 -5
0 -10 -9 -10 -20 0 -11 -4 -20 -10 -20 -5 0 -10 -9 -10 -20 0 -13 -7 -20 -20
-20 -16 0 -20 7 -20 30 0 17 -4 30 -10 30 -5 0 -10 9 -10 20 0 11 -4 20 -10
20 -5 0 -10 9 -10 20 0 11 -4 20 -10 20 -5 0 -10 14 -10 30 0 17 -4 30 -10 30
-5 0 -10 9 -10 20 0 11 -4 20 -10 20 -5 0 -10 14 -10 30 0 17 -4 30 -10 30 -5
0 -10 9 -10 20 0 17 7 20 40 20 22 0 40 -4 40 -10z m2320 -10 c0 -11 -4 -20
-10 -20 -5 0 -10 -9 -10 -20 0 -11 -4 -20 -10 -20 -5 0 -10 -9 -10 -20 0 -11
-4 -20 -10 -20 -5 0 -10 -13 -10 -30 0 -16 -4 -30 -10 -30 -5 0 -10 -9 -10
-20 0 -11 -4 -20 -10 -20 -5 0 -10 -13 -10 -30 0 -16 -4 -30 -10 -30 -5 0 -10
-7 -10 -16 0 -15 -23 -44 -34 -44 -3 0 -6 9 -6 20 0 11 -4 20 -10 20 -5 0 -10
9 -10 20 0 11 -4 20 -10 20 -5 0 -10 9 -10 20 0 11 -4 20 -10 20 -5 0 -10 9
-10 20 0 11 -4 20 -10 20 -5 0 -10 9 -10 20 0 11 -4 20 -10 20 -5 0 -10 9 -10
20 0 11 -4 20 -10 20 -5 0 -10 9 -10 20 0 11 -4 20 -10 20 -5 0 -10 5 -10 10
0 6 14 10 30 10 17 0 30 5 30 10 0 6 37 10 90 10 53 0 90 4 90 10 0 6 14 10
30 10 23 0 30 -4 30 -20z m100 -30 c0 -27 5 -50 10 -50 6 0 10 -40 10 -100 0
-60 4 -100 10 -100 6 0 10 -37 10 -90 0 -53 4 -90 10 -90 6 0 10 -4 10 -10 0
-5 -9 -10 -20 -10 -11 0 -20 5 -20 10 0 6 -13 10 -30 10 -16 0 -30 5 -30 10 0
6 -13 10 -30 10 -16 0 -30 5 -30 10 0 6 -9 10 -20 10 -11 0 -20 5 -20 10 0 6
-12 10 -26 10 -29 0 -67 31 -46 38 6 2 12 17 12 33 0 16 5 29 10 29 6 0 10 9
10 20 0 11 5 20 10 20 6 0 10 9 10 20 0 11 5 20 10 20 6 0 10 14 10 30 0 17 5
30 10 30 6 0 10 9 10 20 0 11 5 20 10 20 6 0 10 9 10 20 0 11 5 20 10 20 6 0
10 14 10 30 0 17 5 30 10 30 6 0 10 9 10 20 0 16 7 20 30 20 29 0 30 -1 30
-50z m-2160 -50 c0 -11 5 -20 10 -20 6 0 10 -13 10 -30 0 -16 5 -30 10 -30 6
0 10 -13 10 -30 0 -16 5 -30 10 -30 6 0 10 -13 10 -30 0 -16 5 -30 10 -30 6 0
10 -13 10 -30 0 -16 5 -30 10 -30 6 0 10 -18 10 -40 0 -22 -4 -40 -10 -40 -6
0 -10 -27 -10 -60 0 -33 -4 -60 -10 -60 -5 0 -10 5 -10 10 0 6 -8 10 -18 10
-10 0 -24 9 -32 20 -8 11 -22 20 -32 20 -10 0 -18 5 -18 10 0 6 -8 10 -18 10
-10 0 -24 9 -32 20 -8 11 -20 20 -28 20 -7 0 -20 6 -28 14 -16 17 -19 66 -4
66 6 0 10 9 10 20 0 11 5 20 10 20 6 0 10 9 10 20 0 11 5 20 10 20 6 0 10 9
10 20 0 11 5 20 10 20 6 0 10 9 10 20 0 11 5 20 10 20 6 0 10 9 10 20 0 11 5
20 10 20 6 0 10 9 10 20 0 11 5 20 10 20 6 0 10 9 10 20 0 11 5 20 10 20 6 0
10 -9 10 -20z m1740 0 c0 -11 5 -20 10 -20 6 0 10 -9 10 -20 0 -11 5 -20 10
-20 6 0 10 -9 10 -20 0 -11 5 -20 10 -20 6 0 10 -9 10 -20 0 -11 5 -20 10 -20
6 0 10 -9 10 -20 0 -11 5 -20 10 -20 6 0 10 -9 10 -20 0 -11 5 -20 10 -20 6 0
10 -9 10 -20 0 -11 5 -20 10 -20 6 0 10 -13 10 -30 0 -22 -5 -30 -18 -30 -10
0 -24 -9 -32 -20 -8 -11 -21 -20 -30 -20 -9 0 -22 -9 -30 -20 -8 -11 -21 -20
-30 -20 -9 0 -22 -9 -30 -20 -8 -11 -22 -20 -32 -20 -10 0 -18 -4 -18 -10 0
-5 -4 -10 -10 -10 -5 0 -10 22 -10 49 0 30 -5 51 -12 54 -10 4 -9 8 2 17 11 9
12 13 3 17 -15 6 -18 63 -3 63 6 0 10 14 10 30 0 17 5 30 10 30 6 0 10 14 10
30 0 17 5 30 10 30 6 0 10 14 10 30 0 17 5 30 10 30 6 0 10 14 10 30 0 17 5
30 10 30 6 0 10 9 10 20 0 11 5 20 10 20 6 0 10 -9 10 -20z m-900 -390 c0 -83
-1 -90 -20 -90 -11 0 -20 -4 -20 -10 0 -5 -8 -10 -18 -10 -10 0 -24 -9 -32
-20 -8 -11 -22 -20 -32 -20 -10 0 -18 -4 -18 -10 0 -5 -9 -10 -20 -10 -11 0
-20 -4 -20 -10 0 -5 -13 -10 -30 -10 l-30 0 0 65 c0 57 3 69 25 90 13 14 29
25 35 25 7 0 29 18 50 40 25 26 47 40 64 40 14 0 26 5 26 10 0 6 9 10 20 10
19 0 20 -7 20 -90z m60 80 c0 -5 16 -10 35 -10 30 0 45 -10 100 -65 60 -60 65
-68 65 -109 0 -26 5 -46 12 -48 9 -3 8 -9 -4 -21 -18 -19 -48 -23 -48 -7 0 6
-9 10 -20 10 -11 0 -20 5 -20 10 0 6 -9 10 -20 10 -11 0 -20 5 -20 10 0 6 -8
10 -18 10 -10 0 -24 9 -32 20 -8 11 -22 20 -32 20 -16 0 -18 10 -18 90 0 53 4
90 10 90 6 0 10 -4 10 -10z m-675 -85 c41 -41 75 -81 75 -90 0 -8 5 -15 10
-15 6 0 10 -18 10 -40 0 -22 5 -40 10 -40 6 0 10 -18 10 -40 0 -22 5 -40 10
-40 6 0 10 -4 10 -10 0 -24 -35 -6 -80 40 -27 28 -54 50 -60 50 -6 0 -31 20
-55 45 -45 44 -45 45 -45 115 0 59 10 97 28 100 1 0 36 -34 77 -75z m1375 -10
c0 -84 -1 -86 -35 -120 -19 -19 -39 -35 -45 -35 -6 0 -33 -22 -60 -50 -27 -27
-56 -50 -64 -50 -9 0 -16 -4 -16 -10 0 -5 -4 -10 -10 -10 -5 0 -10 9 -10 20 0
11 5 20 10 20 6 0 10 14 10 30 0 17 5 30 10 30 6 0 10 18 10 40 0 22 5 40 10
40 6 0 10 7 10 15 0 21 141 163 163 164 15 1 17 -9 17 -84z m-1780 55 c0 -5 8
-10 18 -10 10 0 24 -9 32 -20 8 -11 21 -20 30 -20 9 0 22 -9 30 -20 8 -11 22
-20 32 -20 10 0 18 -4 18 -10 0 -5 7 -10 16 -10 15 0 44 -23 44 -34 0 -3 -40
-6 -90 -6 -53 0 -90 -4 -90 -10 0 -6 -47 -10 -120 -10 -73 0 -120 -4 -120 -10
0 -23 -33 -7 -75 35 -25 24 -45 47 -45 50 0 3 9 5 20 5 11 0 20 5 20 10 0 6 9
10 20 10 11 0 20 5 20 10 0 6 14 10 30 10 17 0 30 5 30 10 0 6 14 10 30 10 17
0 30 5 30 10 0 6 14 10 30 10 17 0 30 5 30 10 0 6 14 10 30 10 17 0 30 -4 30
-10z m2140 0 c0 -5 9 -10 20 -10 11 0 20 -4 20 -10 0 -5 14 -10 30 -10 17 0
30 -4 30 -10 0 -5 14 -10 30 -10 17 0 30 -4 30 -10 0 -5 7 -10 16 -10 8 0 22
-7 30 -15 13 -13 10 -20 -30 -60 -30 -30 -54 -45 -71 -45 -14 0 -25 5 -25 10
0 6 -43 10 -110 10 -67 0 -110 4 -110 10 0 6 -30 10 -70 10 -38 0 -70 3 -70 6
0 11 29 34 42 34 8 0 20 9 28 20 8 11 21 20 30 20 9 0 22 9 30 20 8 11 21 20
30 20 9 0 22 9 30 20 10 14 26 20 52 20 21 0 38 -4 38 -10z m-1400 -180 c0
-40 4 -70 10 -70 6 0 10 -8 10 -18 0 -10 9 -24 20 -32 11 -8 20 -20 20 -28 0
-18 46 -62 65 -62 8 0 15 -4 15 -10 0 -5 9 -10 20 -10 11 0 20 -4 20 -10 0 -5
9 -10 20 -10 11 0 20 -4 20 -10 0 -5 13 -10 29 -10 16 0 32 -6 35 -12 5 -10 7
-10 12 0 3 6 19 12 35 12 16 0 29 5 29 10 0 6 9 10 20 10 11 0 20 5 20 10 0 6
11 10 25 10 26 0 95 59 95 81 0 6 14 24 30 39 17 15 30 35 30 44 0 9 5 16 10
16 6 0 10 9 10 20 0 11 -4 20 -10 20 -5 0 -10 18 -10 40 l0 40 70 0 c40 0 70
-4 70 -10 0 -5 23 -10 50 -10 28 0 50 -4 50 -10 0 -5 -4 -10 -10 -10 -5 0 -10
-13 -10 -30 0 -16 -4 -30 -10 -30 -5 0 -10 -18 -10 -40 0 -22 -4 -40 -10 -40
-5 0 -10 -13 -10 -30 0 -16 -4 -30 -10 -30 -5 0 -10 -13 -10 -30 0 -21 -5 -30
-16 -30 -8 0 -33 -18 -54 -40 l-38 -40 -334 0 c-322 0 -334 1 -348 20 -8 11
-20 20 -28 20 -7 0 -28 16 -47 35 -27 26 -35 43 -35 70 0 19 -4 35 -10 35 -5
0 -10 18 -10 40 0 22 -4 40 -10 40 -5 0 -10 18 -10 39 0 22 -5 41 -12 43 -9 3
-8 9 2 21 12 13 35 16 113 17 l97 0 0 -70z m-430 -30 c21 -22 44 -40 50 -40 6
0 33 -22 60 -50 27 -27 54 -50 60 -50 11 0 60 -44 60 -55 0 -3 -9 -5 -20 -5
-11 0 -20 -4 -20 -10 0 -5 -9 -10 -20 -10 -11 0 -20 -4 -20 -10 0 -5 -9 -10
-20 -10 -11 0 -20 -4 -20 -10 0 -5 -9 -10 -20 -10 -11 0 -20 -4 -20 -10 0 -5
-9 -10 -20 -10 -11 0 -20 -4 -20 -10 0 -5 -9 -10 -20 -10 -11 0 -20 -4 -20
-10 0 -5 -9 -10 -20 -10 -11 0 -20 -4 -20 -10 0 -5 -8 -10 -18 -10 -10 0 -24
-9 -32 -20 -8 -11 -22 -20 -32 -20 -10 0 -18 -4 -18 -10 0 -5 -9 -10 -20 -10
-11 0 -20 -4 -20 -10 0 -5 -9 -10 -20 -10 -11 0 -20 -4 -20 -10 0 -5 -9 -10
-20 -10 -11 0 -20 -4 -20 -10 0 -5 -9 -10 -20 -10 -11 0 -20 -4 -20 -10 0 -5
-9 -10 -20 -10 -11 0 -20 -4 -20 -10 0 -5 -9 -10 -20 -10 -11 0 -20 -4 -20
-10 0 -5 -9 -10 -20 -10 -11 0 -20 -4 -20 -10 0 -5 -9 -10 -20 -10 -18 0 -20
7 -20 60 0 33 -4 60 -10 60 -6 0 -10 27 -10 60 0 33 -4 60 -10 60 -6 0 -10 30
-10 70 0 40 -4 70 -10 70 -6 0 -10 27 -10 60 0 33 -4 60 -10 60 -5 0 -10 5
-10 10 0 6 9 10 20 10 11 0 20 5 20 10 0 6 47 10 120 10 73 0 120 4 120 10 0
6 43 10 110 10 67 0 110 4 110 10 0 17 11 11 50 -30z m770 30 c0 -5 9 -10 20
-10 15 0 20 -7 20 -28 0 -16 -8 -34 -20 -42 -17 -12 -20 -26 -20 -82 0 -60 -2
-68 -19 -68 -11 0 -21 -6 -23 -12 -9 -25 -38 20 -38 56 0 20 -4 36 -10 36 -5
0 -10 16 -10 36 0 25 -7 43 -21 55 -19 16 -20 20 -6 34 9 8 23 15 31 15 9 0
16 5 16 10 0 6 18 10 40 10 22 0 40 -4 40 -10z m940 -20 c0 -6 42 -10 106 -10
78 0 109 -4 120 -14 16 -17 20 -106 4 -106 -6 0 -10 -40 -10 -100 0 -60 -4
-100 -10 -100 -6 0 -10 -39 -10 -96 0 -76 -3 -99 -17 -112 -12 -12 -18 -13
-21 -4 -2 6 -12 12 -23 12 -10 0 -19 5 -19 10 0 6 -9 10 -20 10 -11 0 -20 5
-20 10 0 6 -9 10 -20 10 -11 0 -20 5 -20 10 0 6 -9 10 -20 10 -11 0 -20 5 -20
10 0 6 -9 10 -20 10 -11 0 -20 5 -20 10 0 6 -9 10 -20 10 -11 0 -20 5 -20 10
0 6 -8 10 -18 10 -10 0 -24 9 -32 20 -8 11 -22 20 -32 20 -10 0 -18 5 -18 10
0 6 -9 10 -20 10 -11 0 -20 5 -20 10 0 6 -9 10 -20 10 -11 0 -20 5 -20 10 0 6
-9 10 -20 10 -11 0 -20 5 -20 10 0 6 -9 10 -20 10 -11 0 -20 5 -20 10 0 6 -9
10 -20 10 -11 0 -20 5 -20 10 0 6 -9 10 -20 10 -11 0 -20 5 -20 10 0 6 -7 10
-16 10 -8 0 -22 7 -30 15 -13 13 -10 20 30 60 25 25 50 45 56 45 6 0 33 23 60
50 27 28 56 50 64 50 9 0 16 5 16 10 0 6 47 10 120 10 73 0 120 -4 120 -10z
m-1430 -250 c8 -11 20 -20 28 -20 7 0 20 -6 28 -14 16 -17 19 -46 4 -46 -5 0
-10 -7 -10 -15 0 -9 -36 -51 -80 -95 -44 -44 -80 -84 -80 -90 0 -6 -40 -51
-90 -100 -49 -49 -90 -94 -90 -100 0 -6 -36 -46 -80 -90 -44 -44 -80 -84 -80
-90 0 -14 -46 -60 -60 -60 -17 0 -40 26 -40 44 0 9 -4 16 -10 16 -5 0 -10 9
-10 20 0 11 -4 20 -10 20 -5 0 -10 9 -10 20 0 11 -4 20 -10 20 -5 0 -10 9 -10
20 0 11 -4 20 -10 20 -5 0 -10 8 -10 18 0 10 -9 24 -20 32 -11 8 -20 22 -20
32 0 10 -4 18 -10 18 -5 0 -10 9 -10 20 0 11 -4 20 -10 20 -5 0 -10 9 -10 20
0 11 -4 20 -10 20 -5 0 -10 5 -10 10 0 6 9 10 20 10 11 0 20 5 20 10 0 6 8 10
18 10 10 0 24 9 32 20 8 11 22 20 32 20 10 0 18 5 18 10 0 6 9 10 20 10 11 0
20 5 20 10 0 6 9 10 20 10 11 0 20 5 20 10 0 6 9 10 20 10 11 0 20 5 20 10 0
6 9 10 20 10 11 0 20 5 20 10 0 6 9 10 20 10 11 0 20 5 20 10 0 6 9 10 20 10
11 0 20 5 20 10 0 6 9 10 20 10 11 0 20 5 20 10 0 6 9 10 20 10 11 0 20 5 20
10 0 6 9 10 20 10 11 0 20 5 20 10 0 6 9 10 20 10 11 0 20 5 20 10 0 6 9 10
20 10 11 0 20 5 20 10 0 6 8 10 18 10 10 0 24 9 32 20 8 11 22 20 32 20 10 0
18 5 18 10 0 18 35 11 50 -10z m930 10 c0 -5 9 -10 20 -10 11 0 20 -4 20 -10
0 -5 9 -10 20 -10 11 0 20 -4 20 -10 0 -5 9 -10 20 -10 11 0 20 -4 20 -10 0
-5 9 -10 20 -10 11 0 20 -4 20 -10 0 -5 8 -10 18 -10 10 0 24 -9 32 -20 8 -11
22 -20 32 -20 10 0 18 -4 18 -10 0 -5 9 -10 20 -10 11 0 20 -4 20 -10 0 -5 9
-10 20 -10 11 0 20 -4 20 -10 0 -5 9 -10 20 -10 11 0 20 -4 20 -10 0 -5 9 -10
20 -10 11 0 20 -4 20 -10 0 -5 9 -10 20 -10 11 0 20 -4 20 -10 0 -5 9 -10 20
-10 11 0 20 -4 20 -10 0 -5 9 -10 20 -10 11 0 20 -4 20 -10 0 -5 8 -10 18 -10
10 0 24 -9 32 -20 8 -11 22 -20 32 -20 10 0 18 -4 18 -10 0 -5 9 -10 20 -10
11 0 20 -4 20 -10 0 -5 -4 -10 -10 -10 -5 0 -10 -9 -10 -20 0 -11 -4 -20 -10
-20 -5 0 -10 -8 -10 -18 0 -10 -9 -24 -20 -32 -11 -8 -20 -22 -20 -32 0 -10
-4 -18 -10 -18 -5 0 -10 -9 -10 -20 0 -11 -4 -20 -10 -20 -5 0 -10 -9 -10 -20
0 -11 -4 -20 -10 -20 -5 0 -10 -8 -10 -18 0 -10 -9 -24 -20 -32 -11 -8 -20
-22 -20 -32 0 -10 -4 -18 -10 -18 -5 0 -10 -9 -10 -20 0 -11 -2 -20 -5 -20
-10 0 -155 150 -155 160 0 6 -36 46 -80 90 -44 44 -80 84 -80 90 0 6 -40 51
-90 100 -49 49 -90 94 -90 100 0 6 -23 33 -50 60 l-51 50 43 44 c40 42 78 59
78 36z m-800 -100 c0 -5 14 -10 30 -10 17 0 30 -4 30 -10 0 -5 14 -10 30 -10
17 0 30 -4 30 -10 0 -5 14 -10 30 -10 17 0 30 -4 30 -10 0 -5 9 -10 20 -10 11
0 20 -4 20 -10 0 -5 12 -10 26 -10 56 0 54 21 54 -614 0 -384 -3 -586 -10
-586 -5 0 -10 9 -10 20 0 11 -4 20 -10 20 -5 0 -10 9 -10 20 0 11 -4 20 -10
20 -5 0 -10 14 -10 30 0 17 -4 30 -10 30 -5 0 -10 9 -10 20 0 11 -4 20 -10 20
-5 0 -10 9 -10 20 0 11 -4 20 -10 20 -5 0 -10 9 -10 20 0 11 -4 20 -10 20 -5
0 -10 9 -10 20 0 11 -4 20 -10 20 -5 0 -10 9 -10 20 0 11 -4 20 -10 20 -5 0
-10 14 -10 30 0 17 -4 30 -10 30 -5 0 -10 9 -10 20 0 11 -4 20 -10 20 -5 0
-10 9 -10 20 0 11 -4 20 -10 20 -5 0 -10 9 -10 20 0 11 -4 20 -10 20 -5 0 -10
9 -10 20 0 11 -4 20 -10 20 -5 0 -10 9 -10 20 0 11 -4 20 -10 20 -5 0 -10 14
-10 30 0 17 -4 30 -10 30 -5 0 -10 9 -10 20 0 11 -4 20 -10 20 -5 0 -10 9 -10
20 0 11 -4 20 -10 20 -5 0 -10 9 -10 20 0 11 -4 20 -10 20 -5 0 -10 9 -10 20
0 11 -4 20 -10 20 -5 0 -10 9 -10 20 0 11 -4 20 -10 20 -5 0 -10 14 -10 30 0
17 -4 30 -10 30 -5 0 -10 9 -10 20 0 11 -4 20 -10 20 -5 0 -10 9 -10 20 0 11
-4 20 -10 20 -5 0 -10 9 -10 20 0 11 -4 20 -10 20 -5 0 -10 11 -10 26 0 18 18
42 60 84 33 32 60 64 60 70 0 12 61 78 73 79 4 1 7 -3 7 -9z m500 0 c0 -5 -9
-10 -20 -10 -11 0 -20 -4 -20 -10 0 -5 -13 -10 -30 -10 -16 0 -30 -4 -30 -10
0 -5 -13 -10 -30 -10 -16 0 -30 -4 -30 -10 0 -5 -9 -10 -20 -10 -11 0 -20 5
-20 10 0 6 -13 10 -30 10 -16 0 -30 5 -30 10 0 6 -13 10 -30 10 -16 0 -30 5
-30 10 0 6 -13 10 -30 10 -16 0 -30 5 -30 10 0 6 70 10 190 10 120 0 190 -4
190 -10z m205 -65 c41 -41 75 -80 75 -86 0 -6 15 -25 33 -42 20 -19 27 -32 20
-34 -7 -3 -13 -13 -13 -24 0 -10 -4 -19 -10 -19 -5 0 -10 -9 -10 -20 0 -11 -4
-20 -10 -20 -5 0 -10 -9 -10 -20 0 -11 -4 -20 -10 -20 -5 0 -10 -9 -10 -20 0
-11 -4 -20 -10 -20 -5 0 -10 -13 -10 -30 0 -16 -4 -30 -10 -30 -5 0 -10 -9
-10 -20 0 -11 -4 -20 -10 -20 -5 0 -10 -9 -10 -20 0 -11 -4 -20 -10 -20 -5 0
-10 -9 -10 -20 0 -11 -4 -20 -10 -20 -5 0 -10 -9 -10 -20 0 -11 -4 -20 -10
-20 -5 0 -10 -9 -10 -20 0 -11 -4 -20 -10 -20 -5 0 -10 -13 -10 -30 0 -16 -4
-30 -10 -30 -5 0 -10 -9 -10 -20 0 -11 -4 -20 -10 -20 -5 0 -10 -9 -10 -20 0
-11 -4 -20 -10 -20 -5 0 -10 -9 -10 -20 0 -11 -4 -20 -10 -20 -5 0 -10 -9 -10
-20 0 -11 -4 -20 -10 -20 -5 0 -10 -9 -10 -20 0 -11 -4 -20 -10 -20 -5 0 -10
-13 -10 -30 0 -16 -4 -30 -10 -30 -5 0 -10 -9 -10 -20 0 -11 -4 -20 -10 -20
-5 0 -10 -9 -10 -20 0 -11 -4 -20 -10 -20 -5 0 -10 -9 -10 -20 0 -11 -4 -20
-10 -20 -5 0 -10 -9 -10 -20 0 -11 -4 -20 -10 -20 -5 0 -10 -9 -10 -20 0 -11
-4 -20 -10 -20 -5 0 -10 -13 -10 -30 0 -16 -4 -30 -10 -30 -5 0 -10 -9 -10
-20 0 -11 -4 -20 -10 -20 -7 0 -10 203 -10 590 l0 590 30 0 c17 0 30 5 30 10
0 6 14 10 30 10 17 0 30 5 30 10 0 6 14 10 30 10 17 0 30 5 30 10 0 6 14 10
30 10 17 0 30 5 30 10 0 6 9 10 20 10 11 0 20 5 20 10 0 18 9 11 85 -65z
m-925 -205 c0 -11 5 -20 10 -20 6 0 10 -13 10 -30 0 -16 5 -30 10 -30 6 0 10
-9 10 -20 0 -11 5 -20 10 -20 6 0 10 -9 10 -20 0 -11 5 -20 10 -20 6 0 10 -9
10 -20 0 -11 5 -20 10 -20 6 0 10 -9 10 -20 0 -11 5 -20 10 -20 6 0 10 -9 10
-20 0 -11 5 -20 10 -20 6 0 10 -13 10 -30 0 -16 5 -30 10 -30 6 0 10 -9 10
-20 0 -11 5 -20 10 -20 6 0 10 -9 10 -20 0 -11 5 -20 10 -20 6 0 10 -9 10 -20
0 -11 5 -20 10 -20 6 0 10 -9 10 -20 0 -11 5 -20 10 -20 6 0 10 -9 10 -20 0
-11 5 -20 10 -20 6 0 10 -13 10 -30 0 -16 5 -30 10 -30 6 0 10 -9 10 -20 0
-11 5 -20 10 -20 6 0 10 -9 10 -20 0 -11 5 -20 10 -20 6 0 10 -9 10 -20 0 -11
5 -20 10 -20 6 0 10 -9 10 -20 0 -11 5 -20 10 -20 6 0 10 -13 10 -30 0 -16 5
-30 10 -30 6 0 10 -9 10 -20 0 -11 5 -20 10 -20 6 0 10 -9 10 -20 0 -11 5 -20
10 -20 6 0 10 -9 10 -20 0 -11 5 -20 10 -20 6 0 10 -9 10 -20 0 -11 5 -20 10
-20 6 0 10 -9 10 -20 0 -11 5 -20 10 -20 6 0 10 -13 10 -30 0 -16 -3 -30 -6
-30 -3 0 -23 18 -44 40 -21 22 -44 40 -50 40 -7 0 -25 14 -40 30 -15 17 -33
30 -40 30 -7 0 -25 14 -40 30 -15 17 -33 30 -40 30 -7 0 -25 14 -40 30 -15 17
-33 30 -40 30 -6 0 -29 18 -50 40 -21 22 -44 40 -50 40 -7 0 -25 14 -40 30
-15 17 -33 30 -40 30 -7 0 -25 14 -40 30 -15 17 -33 30 -40 30 -7 0 -25 14
-40 30 -15 17 -33 30 -40 30 -7 0 -25 14 -40 30 -15 17 -33 30 -40 30 -6 0
-29 18 -50 40 -21 22 -46 40 -54 40 -22 0 -20 13 4 30 11 8 20 20 20 28 0 7
36 48 80 92 44 44 80 84 80 90 0 11 180 198 193 199 4 1 7 -8 7 -19z m1135
-25 c25 -24 45 -49 45 -55 0 -6 36 -46 80 -90 44 -44 80 -84 80 -90 0 -6 27
-38 60 -70 59 -58 75 -90 44 -90 -9 0 -29 -13 -44 -30 -15 -16 -33 -30 -40
-30 -6 0 -29 -18 -50 -40 -21 -22 -44 -40 -50 -40 -7 0 -25 -13 -40 -30 -15
-16 -33 -30 -40 -30 -6 0 -29 -18 -50 -40 -21 -22 -44 -40 -50 -40 -7 0 -25
-13 -40 -30 -15 -16 -33 -30 -40 -30 -6 0 -29 -18 -50 -40 -21 -22 -44 -40
-50 -40 -7 0 -25 -13 -40 -30 -15 -16 -33 -30 -40 -30 -7 0 -25 -13 -40 -30
-15 -16 -33 -30 -40 -30 -6 0 -29 -18 -50 -40 -21 -22 -45 -40 -52 -40 -7 0
-20 -9 -28 -20 -18 -26 -30 -26 -30 0 0 11 5 20 10 20 6 0 10 9 10 20 0 11 5
20 10 20 6 0 10 9 10 20 0 11 5 20 10 20 6 0 10 9 10 20 0 11 5 20 10 20 6 0
10 9 10 20 0 11 5 20 10 20 6 0 10 9 10 20 0 11 5 20 10 20 6 0 10 14 10 30 0
17 5 30 10 30 6 0 10 9 10 20 0 11 5 20 10 20 6 0 10 9 10 20 0 11 5 20 10 20
6 0 10 9 10 20 0 11 5 20 10 20 6 0 10 9 10 20 0 11 5 20 10 20 6 0 10 14 10
30 0 17 5 30 10 30 6 0 10 9 10 20 0 11 5 20 10 20 6 0 10 9 10 20 0 11 5 20
10 20 6 0 10 9 10 20 0 11 5 20 10 20 6 0 10 9 10 20 0 11 5 20 10 20 6 0 10
9 10 20 0 11 5 20 10 20 6 0 10 14 10 30 0 17 5 30 10 30 6 0 10 9 10 20 0 11
5 20 10 20 6 0 10 9 10 20 0 11 5 20 10 20 6 0 10 9 10 20 0 11 5 20 10 20 6
0 10 9 10 20 0 11 5 20 10 20 6 0 10 9 10 20 0 11 5 20 10 20 6 0 10 14 10 30
0 17 5 30 10 30 6 0 10 7 10 15 0 13 19 43 28 45 1 0 23 -20 47 -45z"/>
</g>
</svg>
