<svg id="svg" xmlns="http://www.w3.org/2000/svg" xmlns:xlink="http://www.w3.org/1999/xlink" width="400" height="295.3586497890295" viewBox="0, 0, 400,295.3586497890295"><g id="svgg"><path id="path0" d="M43.522 41.210 C 19.885 63.825,0.428 82.696,0.283 83.147 C 0.032 83.926,8.028 92.761,44.151 131.622 C 112.731 205.398,149.751 245.268,169.149 266.245 C 181.596 279.705,192.797 291.777,194.041 293.072 L 196.303 295.427 235.449 255.097 C 288.592 200.347,326.561 161.250,344.275 143.038 C 380.516 105.778,385.728 100.408,392.655 93.194 C 396.695 88.987,399.969 85.189,399.931 84.755 C 399.894 84.321,386.128 70.952,369.341 55.046 C 330.588 18.326,330.359 18.109,320.095 8.254 L 311.498 0.000 198.998 0.047 L 86.498 0.093 43.522 41.210 M194.346 4.523 C 192.894 6.991,137.949 80.116,137.553 80.108 C 137.102 80.099,89.230 5.665,88.751 4.228 C 88.562 3.660,106.225 3.376,141.744 3.376 C 186.421 3.376,194.912 3.561,194.346 4.523 M308.017 4.072 C 308.017 5.265,258.545 82.278,257.779 82.278 C 257.379 82.278,253.425 77.474,248.990 71.603 C 244.556 65.731,231.340 48.232,219.620 32.714 C 207.901 17.197,198.312 4.248,198.312 3.938 C 198.312 3.629,222.996 3.376,253.165 3.376 C 283.333 3.376,308.017 3.689,308.017 4.072 M321.182 45.846 L 331.394 83.122 314.277 83.350 C 304.863 83.476,289.176 83.476,279.418 83.350 L 261.677 83.122 266.070 76.339 C 268.487 72.608,279.350 55.608,290.210 38.561 C 301.071 21.513,310.185 7.792,310.464 8.068 C 310.742 8.344,315.566 25.344,321.182 45.846 M323.120 15.472 C 327.577 19.804,342.996 34.514,357.384 48.161 C 371.772 61.808,386.203 75.523,389.451 78.640 L 395.359 84.306 365.401 83.819 C 348.924 83.551,335.208 83.095,334.920 82.805 C 334.633 82.516,329.956 66.010,324.527 46.126 C 319.098 26.242,314.451 9.438,314.200 8.784 C 313.257 6.327,315.246 7.818,323.120 15.472 M72.084 45.974 L 61.221 82.700 32.949 82.700 L 4.677 82.700 15.630 72.282 C 21.654 66.552,39.114 49.892,54.430 35.260 C 69.747 20.628,82.429 8.790,82.613 8.953 C 82.797 9.115,78.059 25.775,72.084 45.974 M93.302 17.511 C 96.488 22.500,107.015 38.867,116.695 53.882 C 126.375 68.896,134.475 81.650,134.695 82.224 C 135.061 83.177,66.141 83.163,65.082 82.210 C 64.613 81.787,86.405 8.439,87.001 8.439 C 87.279 8.439,90.115 12.521,93.302 17.511 M194.937 46.835 L 194.937 83.544 167.511 83.544 C 152.426 83.544,140.084 83.309,140.084 83.020 C 140.084 82.393,194.141 10.127,194.611 10.127 C 194.790 10.127,194.937 26.646,194.937 46.835 M227.848 48.803 C 241.540 67.000,252.869 82.261,253.024 82.716 C 253.204 83.247,243.421 83.544,225.809 83.544 L 198.312 83.544 198.337 47.046 L 198.362 10.549 200.658 13.134 C 201.920 14.556,214.156 30.607,227.848 48.803 M99.541 144.093 C 135.059 199.020,156.398 232.009,177.464 264.557 C 189.454 283.081,189.704 283.491,188.040 281.857 C 187.330 281.160,166.678 258.945,142.146 232.489 C 117.614 206.034,90.294 176.603,81.436 167.089 C 62.952 147.236,10.684 90.810,8.152 87.975 L 6.457 86.076 34.241 86.076 L 62.025 86.076 99.541 144.093 M137.474 91.772 C 138.398 94.905,143.935 114.367,149.779 135.021 C 155.622 155.675,166.817 195.169,174.656 222.785 C 182.496 250.401,189.172 274.135,189.492 275.527 C 189.813 276.920,182.686 266.667,173.656 252.743 C 157.344 227.590,92.440 127.256,74.987 100.211 L 65.865 86.076 100.829 86.076 L 135.794 86.076 137.474 91.772 M194.663 87.209 C 194.818 87.363,194.847 131.127,194.729 184.462 L 194.515 281.435 191.687 271.308 C 187.643 256.821,140.464 90.478,139.531 87.414 C 139.087 85.958,193.211 85.757,194.663 87.209 M255.386 88.199 C 255.116 88.903,249.538 107.985,242.991 130.604 C 236.444 153.223,228.877 179.325,226.176 188.608 C 223.474 197.890,216.256 222.764,210.135 243.882 C 204.014 265.000,198.850 282.437,198.659 282.630 C 198.468 282.823,198.312 238.868,198.312 184.951 L 198.312 86.920 227.095 86.920 C 252.467 86.920,255.819 87.071,255.386 88.199 M330.162 87.975 C 329.321 89.023,239.467 224.221,216.308 259.283 C 209.641 269.378,204.064 277.637,203.917 277.637 C 203.769 277.637,207.533 264.251,212.282 247.890 C 220.566 219.350,240.116 151.887,252.449 109.283 C 255.674 98.143,258.471 88.555,258.666 87.975 C 258.941 87.153,266.969 86.920,295.014 86.920 C 323.698 86.920,330.837 87.134,330.162 87.975 M393.108 87.703 C 392.843 88.440,362.407 120.047,332.103 151.055 C 324.619 158.713,305.808 178.080,290.301 194.093 C 241.761 244.215,206.751 280.063,206.751 279.641 C 206.751 279.498,235.050 236.797,269.638 184.749 C 304.226 132.701,332.910 89.398,333.381 88.518 C 334.330 86.745,393.744 85.933,393.108 87.703 " stroke="none" fill="#000000" fill-rule="evenodd"></path></g></svg>