<svg id="svg" xmlns="http://www.w3.org/2000/svg" xmlns:xlink="http://www.w3.org/1999/xlink" width="400" height="555.5555555555555" viewBox="0, 0, 400,555.5555555555555"><g id="svgg"><path id="path0" d="M304.988 12.213 C 298.947 18.864,288.322 30.252,281.377 37.520 C 274.432 44.788,263.234 56.663,256.493 63.909 L 244.236 77.083 237.395 73.264 L 230.554 69.444 196.987 69.444 L 163.419 69.444 155.775 73.758 L 148.132 78.072 142.423 72.022 C 139.283 68.695,125.233 53.785,111.200 38.889 C 97.167 23.993,84.019 10.055,81.982 7.916 L 78.279 4.026 71.980 13.498 L 65.682 22.969 60.670 57.665 C 57.913 76.748,51.895 118.299,47.296 150.000 L 38.934 207.639 27.220 239.582 C 20.777 257.150,15.743 271.762,16.033 272.052 C 16.323 272.342,21.584 269.732,27.725 266.253 C 33.865 262.775,38.889 260.264,38.889 260.674 C 38.889 261.083,33.716 268.068,27.393 276.196 C 7.252 302.083,7.432 301.665,18.056 297.917 C 21.303 296.771,24.275 295.833,24.659 295.833 C 25.303 295.833,25.000 302.208,22.713 336.806 L 21.886 349.306 25.874 345.861 C 28.067 343.966,31.883 340.571,34.354 338.317 C 36.825 336.062,39.092 334.487,39.392 334.817 C 40.149 335.650,43.056 372.800,43.056 381.644 C 43.056 390.402,44.142 390.612,50.578 383.093 C 53.306 379.906,55.857 377.616,56.246 378.006 C 56.982 378.741,65.733 402.043,75.195 428.456 C 80.294 442.692,83.333 448.766,83.333 444.722 C 83.333 441.479,85.605 443.141,91.021 450.347 C 94.036 454.358,102.155 464.826,109.063 473.611 C 115.972 482.396,123.077 491.651,124.853 494.177 C 129.123 500.254,129.696 499.202,127.685 488.981 C 126.764 484.301,126.313 480.169,126.682 479.799 C 127.215 479.266,149.022 504.851,157.787 516.293 C 160.445 519.763,161.249 518.022,165.254 500.129 C 167.150 491.655,169.076 484.722,169.533 484.722 C 170.565 484.722,171.047 485.671,184.561 514.339 C 190.619 527.191,195.934 538.064,196.372 538.501 C 197.090 539.220,200.799 531.729,216.299 498.259 C 222.195 485.526,221.765 485.331,227.253 503.223 C 232.382 519.950,231.838 519.753,241.392 508.333 C 262.940 482.574,268.399 476.269,268.802 476.673 C 269.045 476.916,268.342 481.420,267.239 486.683 C 266.135 491.946,265.480 496.499,265.783 496.801 C 266.270 497.289,278.861 480.618,299.295 452.431 C 305.878 443.350,308.333 441.256,308.333 444.722 C 308.333 448.848,311.503 441.687,322.902 411.806 C 329.605 394.236,335.384 379.348,335.744 378.720 C 336.103 378.092,339.051 380.551,342.293 384.184 L 348.188 390.789 349.124 373.519 C 349.639 364.021,350.444 351.107,350.913 344.822 L 351.766 333.394 360.605 340.428 L 369.444 347.461 369.444 341.369 C 369.444 338.019,368.778 326.965,367.963 316.805 C 366.227 295.149,365.636 296.570,374.907 300.093 C 385.269 304.030,385.201 303.800,369.577 282.196 C 361.865 271.532,355.556 262.454,355.556 262.024 C 355.556 261.594,360.087 264.254,365.625 267.935 C 378.731 276.647,378.731 276.646,366.541 240.953 C 355.013 207.198,357.129 218.522,336.950 82.556 L 328.074 22.750 322.355 11.375 C 319.209 5.119,316.486 0.027,316.304 0.060 C 316.121 0.093,311.030 5.562,304.988 12.213 M320.139 12.500 C 323.811 19.747,323.766 20.425,319.773 17.949 C 313.498 14.058,310.680 17.674,295.113 49.589 L 280.346 79.861 281.288 107.639 C 282.102 131.626,281.962 135.132,280.264 133.333 C 279.183 132.188,272.712 125.000,265.885 117.361 C 259.058 109.722,252.939 103.083,252.287 102.607 C 250.760 101.493,252.219 98.852,265.975 77.832 C 272.244 68.253,284.727 49.167,293.716 35.417 C 316.309 0.857,314.871 2.104,320.139 12.500 M84.271 14.236 C 86.573 17.483,96.154 32.326,105.561 47.222 C 114.969 62.118,126.021 79.455,130.120 85.748 C 134.220 92.041,137.929 98.113,138.362 99.240 C 139.080 101.111,111.375 135.449,110.142 134.216 C 109.881 133.955,110.323 122.176,111.125 108.043 C 112.035 92.014,112.097 81.094,111.290 79.020 C 110.579 77.191,103.713 62.726,96.033 46.875 C 81.909 17.726,81.530 17.216,74.484 17.849 C 72.114 18.062,72.062 17.806,73.890 14.944 C 74.993 13.218,76.356 11.024,76.918 10.069 C 78.570 7.268,79.840 7.988,84.271 14.236 M94.815 50.000 L 109.768 79.861 108.999 104.167 C 107.835 140.961,109.862 136.581,88.914 147.569 C 79.084 152.726,70.370 156.944,69.549 156.944 C 68.505 156.944,68.056 136.995,68.056 90.599 L 68.056 24.254 71.875 21.867 C 78.337 17.829,79.289 18.996,94.815 50.000 M321.303 21.882 L 325.246 24.306 325.070 86.547 C 324.914 142.206,324.429 156.944,322.756 156.944 C 322.477 156.944,313.805 152.736,303.485 147.593 L 284.722 138.242 284.669 131.968 C 284.640 128.518,284.066 115.751,283.393 103.598 L 282.169 81.502 296.926 51.214 C 305.042 34.556,312.647 20.666,313.827 20.347 C 315.007 20.028,316.285 19.697,316.667 19.613 C 317.049 19.528,319.135 20.550,321.303 21.882 M285.728 43.267 C 265.271 74.583,254.645 91.056,252.078 95.435 C 250.428 98.249,248.021 100.173,245.564 100.643 C 243.421 101.053,239.792 101.751,237.500 102.194 C 232.066 103.243,232.205 102.299,239.323 89.810 C 243.365 82.719,251.208 73.065,263.429 60.136 C 273.393 49.596,284.536 37.676,288.193 33.647 C 297.980 22.862,297.285 25.574,285.728 43.267 M123.682 55.622 C 144.643 77.553,161.637 99.937,159.185 102.389 C 158.034 103.540,141.020 100.144,140.527 98.666 C 140.280 97.922,138.695 95.262,137.005 92.754 C 128.835 80.625,97.228 29.353,97.266 28.292 C 97.291 27.627,98.104 28.126,99.073 29.401 C 100.043 30.676,111.117 42.476,123.682 55.622 M338.860 111.160 C 344.264 147.418,349.591 182.984,350.698 190.196 C 353.224 206.661,353.469 206.602,342.980 192.054 C 333.361 178.714,329.133 174.293,315.390 163.199 C 310.363 159.141,304.063 153.865,301.389 151.475 L 296.528 147.130 306.944 152.092 C 312.674 154.820,319.020 157.966,321.048 159.082 C 323.075 160.198,325.106 161.111,325.562 161.111 C 326.017 161.111,326.389 153.713,326.389 144.671 C 326.389 122.043,328.133 44.337,328.630 44.834 C 328.852 45.056,333.456 74.903,338.860 111.160 M65.483 103.945 C 65.698 134.735,66.292 160.185,66.801 160.500 C 67.311 160.815,73.776 157.889,81.168 153.998 C 98.897 144.664,98.787 145.703,80.491 160.406 C 64.000 173.658,57.969 179.788,49.306 192.104 C 41.739 202.861,41.680 204.116,52.109 132.639 C 57.125 98.264,61.913 64.964,62.749 58.640 C 63.586 52.315,64.455 47.325,64.681 47.551 C 64.907 47.777,65.268 73.154,65.483 103.945 M237.153 75.383 C 243.129 78.648,243.457 77.503,229.093 103.531 C 214.056 130.779,215.636 129.560,205.585 121.664 C 195.811 113.985,197.009 114.057,188.323 120.628 C 184.433 123.571,180.508 126.396,179.602 126.906 C 178.213 127.687,153.361 88.701,150.507 81.263 C 150.012 79.973,152.329 78.032,157.472 75.429 L 165.178 71.528 198.908 72.222 C 227.728 72.816,233.296 73.276,237.153 75.383 M155.391 104.648 C 163.041 106.288,176.657 124.233,174.506 129.840 C 173.779 131.734,144.235 155.190,141.024 156.422 C 138.382 157.436,110.880 139.019,112.051 137.020 C 112.567 136.138,119.286 128.073,126.981 119.098 C 142.300 101.230,141.454 101.660,155.391 104.648 M259.915 114.236 C 265.530 120.538,272.762 128.507,275.985 131.944 C 282.795 139.204,283.496 138.027,265.790 149.050 C 250.031 158.860,252.962 159.344,233.243 143.678 L 216.545 130.412 220.975 122.498 C 230.280 105.877,230.378 105.763,236.530 104.383 C 248.480 101.703,248.909 101.884,259.915 114.236 M214.323 131.440 C 223.633 138.802,231.822 145.342,232.521 145.975 C 233.269 146.652,230.508 155.505,225.815 167.474 L 217.838 187.822 220.725 198.519 C 224.966 214.240,226.401 210.602,203.615 241.910 L 196.868 251.181 193.814 247.465 C 183.427 234.828,168.056 213.886,168.056 212.373 C 168.056 211.388,169.712 205.495,171.737 199.278 L 175.418 187.974 167.570 168.095 C 163.254 157.161,159.741 147.523,159.763 146.677 C 159.805 145.112,194.205 118.182,196.267 118.100 C 196.887 118.076,205.012 124.079,214.323 131.440 M124.077 149.726 C 138.821 159.168,138.668 158.881,133.958 168.262 C 128.242 179.646,128.843 179.363,118.132 175.721 C 109.887 172.916,107.306 172.639,98.420 173.605 C 76.735 175.960,66.670 176.546,66.748 175.447 C 66.921 173.028,107.692 140.413,109.680 141.104 C 110.803 141.494,117.281 145.374,124.077 149.726 M304.696 157.305 C 328.587 177.115,327.582 175.377,314.583 174.400 C 308.472 173.941,299.722 173.208,295.139 172.771 C 289.136 172.198,283.724 172.766,275.786 174.801 C 262.831 178.121,264.155 178.621,257.836 168.014 L 252.812 159.581 261.198 154.443 C 265.810 151.617,272.521 147.377,276.111 145.019 C 284.099 139.773,282.966 139.286,304.696 157.305 M165.170 168.031 L 172.642 187.450 169.474 198.239 C 167.732 204.173,166.105 209.258,165.860 209.538 C 165.615 209.819,162.921 206.106,159.874 201.287 C 154.936 193.478,153.045 191.826,142.496 186.108 L 130.658 179.691 135.822 169.650 C 140.640 160.284,151.732 148.915,156.279 148.683 C 157.059 148.644,161.060 157.350,165.170 168.031 M244.115 155.086 C 249.572 159.557,258.384 171.285,260.572 176.988 C 261.094 178.348,257.922 180.946,250.458 185.274 C 242.073 190.135,238.284 193.399,233.910 199.532 C 226.377 210.092,225.981 210.039,222.996 198.052 L 220.425 187.728 227.835 168.864 C 236.148 147.701,235.633 148.136,244.115 155.086 M118.854 178.326 C 137.374 184.731,137.478 185.110,121.330 187.369 C 110.608 188.869,85.194 197.532,57.986 208.961 C 51.774 211.570,51.858 212.276,56.422 195.833 C 61.118 178.912,59.933 179.747,82.639 177.383 C 109.174 174.620,108.053 174.591,118.854 178.326 M320.859 177.305 L 329.065 178.163 333.977 192.903 C 336.679 201.011,338.889 208.005,338.889 208.446 C 338.889 208.887,325.608 204.685,309.375 199.109 C 293.142 193.533,277.922 188.952,275.551 188.930 C 266.426 188.843,254.276 187.058,254.987 185.907 C 260.339 177.248,287.003 173.766,320.859 177.305 M347.463 201.685 C 352.787 208.886,367.899 246.452,366.168 248.184 C 363.282 251.069,334.652 194.592,334.729 186.167 C 334.738 185.192,340.085 191.708,347.463 201.685 M147.467 191.632 C 156.184 197.107,164.518 210.861,163.378 217.890 C 161.970 226.565,160.260 225.802,153.954 213.685 L 147.917 202.083 132.229 196.706 C 114.990 190.796,114.785 190.590,124.517 188.957 C 136.811 186.894,140.632 187.339,147.467 191.632 M52.695 200.950 C 49.967 210.380,31.423 242.997,29.744 241.318 C 29.016 240.590,40.483 209.315,42.832 205.626 C 54.803 186.824,57.095 185.737,52.695 200.950 M265.625 190.262 C 275.625 190.286,273.655 192.046,257.944 197.124 L 243.666 201.738 237.489 213.369 C 230.383 226.750,229.665 227.190,228.427 218.933 C 226.611 206.825,243.172 187.907,254.167 189.530 C 256.840 189.924,261.997 190.254,265.625 190.262 M123.608 196.181 L 136.806 200.694 123.989 201.389 L 111.172 202.083 88.242 224.901 C 75.630 237.451,65.079 247.451,64.793 247.124 C 63.739 245.913,52.778 216.476,52.778 214.857 C 52.778 213.934,57.309 211.509,62.847 209.468 C 68.385 207.426,80.729 202.642,90.278 198.835 C 111.270 190.466,107.726 190.749,123.608 196.181 M310.807 202.053 C 330.271 208.770,338.889 212.374,338.889 213.796 C 338.889 216.758,328.720 247.222,327.731 247.222 C 327.274 247.222,316.843 236.933,304.550 224.357 L 282.200 201.493 268.531 201.094 L 254.861 200.694 267.361 196.254 C 274.236 193.812,280.506 191.937,281.293 192.087 C 282.081 192.238,295.363 196.722,310.807 202.053 M277.778 204.087 C 277.778 207.713,271.408 215.305,263.956 220.560 C 255.438 226.568,253.918 227.064,239.881 228.424 L 231.845 229.203 238.492 216.751 L 245.139 204.300 256.250 203.821 C 262.361 203.558,269.705 203.216,272.569 203.060 C 275.434 202.905,277.778 203.367,277.778 204.087 M152.468 215.993 C 155.694 222.497,158.333 228.139,158.333 228.531 C 158.333 228.923,154.118 228.812,148.966 228.284 C 135.250 226.879,115.323 213.227,115.283 205.208 C 115.280 204.635,122.326 204.167,130.940 204.167 L 146.603 204.167 152.468 215.993 M290.303 227.214 L 293.622 244.743 289.021 267.163 C 283.433 294.398,284.756 291.981,270.648 300.710 C 260.066 307.257,258.764 308.552,256.075 315.207 C 254.451 319.226,252.794 321.980,252.393 321.327 C 251.201 319.387,238.889 285.679,238.889 284.356 C 238.889 280.503,248.068 270.453,254.592 267.163 C 263.327 262.757,262.042 264.679,272.207 240.826 C 277.828 227.636,280.556 219.392,280.556 215.592 C 280.556 198.128,286.031 204.656,290.303 227.214 M113.015 215.713 C 113.554 220.972,116.074 229.726,119.311 237.588 C 130.416 264.550,129.745 263.463,137.303 266.714 C 142.702 269.037,145.334 271.376,149.347 277.421 L 154.483 285.156 147.728 305.077 C 139.995 327.879,140.319 327.516,136.836 317.268 C 134.011 308.956,132.003 306.853,117.700 297.222 C 107.020 290.030,107.238 290.501,102.213 263.889 L 98.672 245.139 101.929 228.786 C 104.872 214.010,107.850 206.944,111.135 206.944 C 111.675 206.944,112.521 210.890,113.015 215.713 M278.087 216.277 C 275.675 237.670,253.970 272.811,247.403 265.956 C 245.216 263.674,231.892 233.154,232.589 232.025 C 232.946 231.447,238.210 230.591,244.287 230.123 C 256.385 229.190,272.051 220.822,276.074 213.143 C 278.603 208.316,278.927 208.821,278.087 216.277 M128.966 223.398 C 138.922 229.785,140.943 230.556,147.726 230.556 C 160.373 230.556,160.242 230.035,152.345 249.041 C 148.475 258.353,145.129 266.219,144.908 266.520 C 144.687 266.821,141.775 266.024,138.436 264.749 L 132.365 262.431 123.806 241.979 C 117.893 227.851,115.279 219.810,115.350 215.972 C 115.433 211.515,115.687 210.993,116.631 213.329 C 117.279 214.930,122.829 219.462,128.966 223.398 M325.681 263.967 C 324.432 271.164,323.299 277.132,323.164 277.230 C 323.028 277.328,316.466 272.648,308.581 266.829 L 294.246 256.250 295.108 249.215 C 295.693 244.432,295.058 238.005,293.123 229.141 C 291.558 221.970,290.278 215.451,290.278 214.655 C 290.278 213.858,298.754 221.684,309.115 232.044 L 327.951 250.881 325.681 263.967 M98.961 231.986 C 97.499 239.636,96.812 247.341,97.319 250.402 L 98.192 255.665 83.530 265.971 C 75.466 271.638,68.600 276.007,68.271 275.679 C 67.943 275.350,67.152 269.595,66.514 262.888 L 65.353 250.694 83.024 233.130 C 92.743 223.469,100.870 216.300,101.085 217.199 C 101.299 218.098,100.344 224.752,98.961 231.986 M355.258 236.319 C 376.711 271.011,377.070 272.676,360.764 261.866 C 353.635 257.140,346.185 253.465,341.047 252.140 C 336.504 250.968,332.357 249.539,331.830 248.963 C 331.079 248.143,336.481 229.258,341.025 216.815 C 341.910 214.393,340.529 212.500,355.258 236.319 M56.899 233.852 C 60.046 242.158,62.437 249.068,62.213 249.207 C 61.989 249.347,58.368 250.270,54.167 251.258 C 49.965 252.246,40.994 256.157,34.231 259.949 C 27.468 263.740,21.615 266.522,21.224 266.131 C 19.294 264.201,27.413 249.677,46.318 221.238 C 50.025 215.662,49.992 215.623,56.899 233.852 M177.893 230.903 C 182.730 237.205,187.030 242.674,187.449 243.056 C 187.868 243.438,189.957 246.094,192.092 248.958 C 197.221 255.839,196.178 256.533,210.412 236.767 C 217.284 227.224,223.069 219.900,223.266 220.492 C 223.463 221.083,222.412 230.306,220.930 240.986 C 218.246 260.333,218.247 260.474,221.051 278.918 C 224.310 300.353,224.626 299.477,214.385 297.421 C 203.389 295.212,183.698 295.438,175.633 297.866 C 167.027 300.456,167.372 301.578,170.884 282.428 C 174.818 260.976,174.547 254.018,168.576 223.264 C 167.496 217.697,168.199 218.274,177.893 230.903 M169.130 241.517 L 172.112 260.812 169.346 277.281 C 167.826 286.339,166.255 294.668,165.857 295.789 C 164.791 298.790,147.024 270.888,147.755 267.361 C 148.072 265.833,151.832 256.036,156.110 245.588 C 160.389 235.141,163.889 225.610,163.889 224.408 C 163.889 216.352,166.617 225.259,169.130 241.517 M227.778 227.198 C 227.778 228.317,231.763 238.256,236.633 249.284 L 245.488 269.334 236.454 282.584 C 231.485 289.871,227.009 295.833,226.506 295.833 C 223.357 295.833,220.796 258.679,222.875 243.144 C 224.044 234.408,225.000 226.402,225.000 225.354 C 225.000 224.305,225.625 223.833,226.389 224.306 C 227.153 224.778,227.778 226.079,227.778 227.198 M64.547 265.972 L 65.484 278.472 43.506 286.323 C 31.418 290.641,20.009 294.625,18.152 295.177 C 15.339 296.012,16.284 294.242,23.823 284.548 C 28.798 278.151,35.845 269.063,39.483 264.354 C 45.468 256.604,46.843 255.602,53.951 253.799 C 63.740 251.318,63.421 250.951,64.547 265.972 M340.231 254.419 C 347.315 256.054,347.393 256.132,362.546 276.886 C 370.909 288.340,377.553 297.910,377.312 298.151 C 376.656 298.806,328.677 280.621,327.221 279.165 C 325.320 277.265,329.148 252.778,331.345 252.778 C 332.322 252.778,336.321 253.516,340.231 254.419 M308.333 269.432 C 314.826 274.257,320.620 278.621,321.208 279.130 C 321.797 279.639,318.672 282.498,314.264 285.484 C 309.856 288.469,299.881 295.456,292.097 301.011 C 274.964 313.238,275.192 313.209,281.039 302.379 C 283.632 297.577,286.469 290.233,287.343 286.060 C 292.520 261.334,293.394 258.272,294.941 259.450 C 295.814 260.115,301.840 264.607,308.333 269.432 M102.273 275.350 C 104.955 289.468,105.983 292.172,112.957 303.436 C 117.202 310.291,120.468 316.106,120.216 316.358 C 119.666 316.908,69.592 280.160,69.540 279.167 C 69.486 278.151,96.278 259.852,97.917 259.785 C 98.681 259.754,100.641 266.758,102.273 275.350 M70.541 288.319 C 76.289 298.327,77.035 296.496,61.458 310.619 C 54.010 317.373,43.021 327.433,37.038 332.977 C 23.527 345.494,24.067 345.620,25.213 330.208 C 25.738 323.142,26.308 312.877,26.479 307.397 C 26.649 301.917,27.266 296.662,27.849 295.719 C 28.634 294.447,59.997 281.899,65.332 280.721 C 65.744 280.630,68.088 284.049,70.541 288.319 M345.096 289.024 C 366.289 297.077,364.543 294.819,365.939 315.972 C 366.393 322.847,367.135 331.818,367.588 335.908 C 368.504 344.177,367.372 344.363,359.722 337.199 C 357.813 335.411,347.188 325.906,336.111 316.078 C 325.035 306.250,315.972 297.830,315.972 297.368 C 315.972 295.661,324.343 281.947,325.385 281.946 C 325.979 281.945,334.849 285.130,345.096 289.024 M98.409 303.765 C 105.013 308.509,113.725 314.759,117.768 317.654 C 126.181 323.676,125.591 321.942,128.530 349.306 C 129.760 360.764,131.657 376.974,132.745 385.328 C 135.914 409.674,137.278 410.308,115.000 377.083 L 99.168 353.472 97.347 340.278 C 95.598 327.599,95.071 326.290,83.874 306.780 C 70.143 282.854,70.260 283.286,79.312 289.933 C 83.211 292.796,91.805 299.021,98.409 303.765 M308.359 305.951 C 297.614 325.240,297.071 326.641,295.776 338.402 C 293.997 354.564,293.258 357.825,290.942 359.747 C 289.770 360.720,289.288 362.811,289.721 365.052 C 290.286 367.978,282.846 408.537,271.357 465.159 C 270.434 469.706,235.480 513.696,233.464 512.847 C 233.010 512.656,232.214 511.094,231.694 509.375 C 231.174 507.656,229.130 500.918,227.151 494.400 L 223.553 482.550 231.325 465.233 C 235.600 455.709,240.982 443.854,243.285 438.889 C 245.588 433.924,249.735 424.861,252.502 418.750 C 255.268 412.639,259.192 405.451,261.223 402.778 C 275.558 383.902,289.004 364.930,288.443 364.369 C 287.845 363.771,275.525 379.792,264.537 395.456 C 260.702 400.922,258.310 402.814,258.350 400.347 C 258.360 399.774,259.866 383.177,261.697 363.464 C 265.623 321.197,265.256 322.109,283.333 309.718 C 289.826 305.268,300.451 297.898,306.944 293.341 C 313.438 288.784,318.939 285.221,319.169 285.424 C 319.400 285.626,314.535 294.864,308.359 305.951 M238.644 291.319 C 254.311 331.738,254.213 330.175,240.859 326.356 C 229.568 323.127,231.003 324.804,228.548 311.975 L 226.489 301.212 230.953 294.431 C 236.188 286.478,236.688 286.276,238.644 291.319 M161.539 296.094 C 165.221 301.125,165.260 301.397,163.749 311.555 L 162.211 321.894 152.981 324.672 C 141.298 328.187,141.606 329.625,149.336 307.623 C 152.984 297.241,156.379 289.248,156.881 289.860 C 157.382 290.472,159.478 293.277,161.539 296.094 M123.159 303.683 C 131.535 309.572,131.863 310.047,137.213 323.954 C 143.814 341.113,145.239 345.646,143.436 343.750 C 138.177 338.217,124.058 317.707,113.867 300.796 C 110.204 294.717,110.571 294.831,123.159 303.683 M218.492 300.522 C 222.935 301.809,224.354 303.011,225.211 306.215 C 226.667 311.660,226.609 311.670,217.319 307.561 C 209.428 304.072,209.072 304.038,204.054 306.301 C 199.320 308.436,198.293 308.449,191.519 306.463 C 183.956 304.246,173.845 305.870,168.295 310.193 C 166.828 311.337,166.545 310.658,166.907 306.868 C 167.670 298.875,199.344 294.978,218.492 300.522 M277.624 303.819 C 275.888 306.684,273.805 310.257,272.997 311.759 C 270.604 316.206,247.019 347.482,246.471 346.934 C 246.195 346.658,249.255 338.149,253.272 328.026 L 260.575 309.621 269.524 304.117 C 280.602 297.303,281.597 297.266,277.624 303.819 M85.307 313.310 L 93.208 326.621 89.362 331.713 C 86.086 336.051,65.499 361.884,51.269 379.514 C 45.133 387.117,44.906 386.647,43.886 364.236 C 43.373 352.969,42.631 341.250,42.237 338.194 C 41.409 331.771,41.422 331.755,60.398 314.583 C 67.152 308.472,73.356 302.715,74.186 301.789 C 76.664 299.024,77.087 299.462,85.307 313.310 M336.137 318.909 L 350.200 331.179 349.439 338.853 C 349.020 343.074,348.275 355.122,347.782 365.625 C 346.724 388.204,346.528 388.340,335.926 373.872 C 331.624 367.999,321.780 355.131,314.051 345.275 C 297.533 324.209,298.322 327.929,307.098 312.495 L 314.196 300.011 318.134 303.325 C 320.301 305.148,328.402 312.161,336.137 318.909 M197.917 308.482 C 201.736 308.428,206.736 308.260,209.028 308.110 C 223.035 307.188,233.780 321.623,222.936 326.794 C 214.053 331.031,174.839 330.245,168.895 325.711 C 162.375 320.738,163.339 315.037,171.331 311.305 C 180.192 307.167,180.916 306.996,186.111 307.815 C 188.785 308.236,194.097 308.536,197.917 308.482 M168.794 332.614 C 172.746 338.793,174.142 342.523,174.886 348.895 C 174.949 349.434,177.135 350.275,179.743 350.764 C 183.954 351.554,191.683 357.527,190.168 358.821 C 184.946 363.279,176.764 363.349,163.889 359.046 L 150.694 354.636 146.361 342.596 C 143.977 335.974,142.151 330.556,142.302 330.556 C 142.453 330.556,146.893 329.046,152.168 327.202 C 163.295 323.311,162.724 323.124,168.794 332.614 M241.415 328.526 C 250.026 331.083,250.083 331.486,243.964 346.499 L 239.447 357.581 227.897 360.787 C 216.694 363.897,201.389 362.710,201.389 358.731 C 201.389 356.474,207.730 351.389,210.545 351.389 C 216.214 351.389,218.056 349.896,218.056 345.299 C 218.056 340.703,220.237 336.645,226.167 330.208 C 230.240 325.788,231.666 325.631,241.415 328.526 M140.972 344.308 C 147.083 352.583,157.396 366.614,163.889 375.490 L 175.694 391.628 185.113 391.647 C 192.278 391.662,194.727 392.176,195.348 393.794 C 196.059 395.647,181.297 419.598,170.035 434.863 L 166.769 439.290 156.854 418.603 C 132.537 367.867,132.374 367.429,130.235 347.368 C 129.168 337.357,128.647 329.189,129.078 329.215 C 129.509 329.242,134.861 336.034,140.972 344.308 M194.444 340.376 L 194.444 350.000 188.979 350.000 C 179.835 350.000,176.959 348.176,175.221 341.274 C 174.367 337.884,172.718 334.321,171.557 333.357 C 167.822 330.258,169.202 329.853,181.941 330.307 L 194.444 330.753 194.444 340.376 M222.347 331.711 C 221.598 333.111,220.013 335.063,218.826 336.048 C 217.575 337.086,216.667 340.032,216.667 343.052 C 216.667 348.810,214.259 350.000,202.604 350.000 L 197.222 350.000 197.222 340.330 L 197.222 330.660 210.069 330.201 C 217.135 329.949,223.095 329.613,223.313 329.455 C 223.531 329.296,223.096 330.312,222.347 331.711 M96.546 348.611 C 97.338 356.864,87.884 420.668,83.477 436.806 L 82.340 440.972 80.828 437.500 C 79.088 433.506,70.016 409.400,63.199 390.658 C 60.635 383.610,58.180 377.265,57.743 376.558 C 56.973 375.312,65.801 363.689,84.611 341.182 L 93.722 330.280 94.701 334.932 C 95.239 337.490,96.070 343.646,96.546 348.611 M315.715 350.462 C 324.469 361.410,332.434 371.655,333.417 373.229 C 335.170 376.036,328.230 396.093,314.482 427.951 C 312.628 432.248,311.111 436.467,311.111 437.326 C 311.111 446.694,307.649 431.621,302.163 398.374 C 295.434 357.588,294.975 350.470,298.078 334.956 C 299.224 329.228,297.593 327.794,315.715 350.462 M261.096 350.166 C 259.525 367.246,259.495 367.343,249.899 387.307 C 244.607 398.316,240.278 407.503,240.278 407.721 C 240.278 408.833,226.399 437.500,225.860 437.500 C 224.060 437.500,197.078 396.910,197.481 394.807 C 197.858 392.836,199.967 392.181,208.335 391.433 C 217.082 390.651,219.053 389.999,220.819 387.302 C 221.973 385.540,224.806 381.583,227.116 378.508 C 229.425 375.433,238.095 363.670,246.382 352.368 C 254.669 341.066,261.724 332.094,262.060 332.431 C 262.396 332.767,261.962 340.748,261.096 350.166 M201.384 352.910 C 201.403 356.397,195.731 358.671,193.056 356.250 C 189.087 352.658,189.558 351.939,195.829 352.016 C 198.882 352.053,201.382 352.455,201.384 352.910 M168.625 362.573 C 176.223 365.415,176.267 365.416,184.997 362.722 C 194.803 359.697,195.833 359.874,195.833 364.583 C 195.833 368.924,195.396 369.117,182.989 370.241 C 171.877 371.248,170.450 370.688,159.097 360.864 C 156.824 358.897,160.621 359.578,168.625 362.573 M210.538 364.029 C 216.339 365.334,218.942 365.227,225.071 363.430 C 234.733 360.598,234.917 361.102,226.445 367.189 C 218.791 372.687,216.916 372.969,205.556 370.330 C 198.723 368.743,197.868 368.143,197.459 364.643 C 197.050 361.148,197.347 360.821,200.237 361.584 C 202.016 362.054,206.652 363.154,210.538 364.029 M300.730 400.694 C 303.447 418.264,305.991 433.709,306.384 435.017 C 307.113 437.445,305.465 441.449,302.028 445.596 C 300.970 446.872,293.463 456.871,285.345 467.815 C 277.226 478.759,270.336 487.465,270.032 487.162 C 269.729 486.859,270.739 480.092,272.278 472.125 C 277.102 447.148,293.050 362.771,293.175 361.566 C 293.553 357.930,296.386 372.607,300.730 400.694 M102.632 377.083 C 123.524 475.188,126.339 489.880,123.964 488.412 C 120.164 486.064,86.113 439.918,86.128 437.138 C 86.150 433.011,95.862 374.873,98.132 365.278 C 99.137 361.029,99.311 361.484,102.632 377.083 M121.764 390.225 C 134.150 408.780,138.744 417.462,160.113 462.702 L 167.753 478.877 163.837 495.821 C 161.682 505.140,159.685 513.001,159.397 513.288 C 159.109 513.576,152.971 506.554,145.756 497.683 C 138.542 488.812,132.014 480.841,131.250 479.970 C 130.486 479.099,128.796 477.138,127.495 475.613 C 126.194 474.088,123.583 465.670,121.694 456.906 C 119.805 448.143,114.464 423.509,109.824 402.165 C 105.185 380.821,101.411 363.008,101.439 362.581 C 101.544 360.945,108.865 370.902,121.764 390.225 M166.962 369.051 C 173.407 373.699,173.628 373.749,181.453 372.302 C 191.957 370.361,200.348 370.517,210.054 372.837 L 218.024 374.742 226.373 369.346 C 236.662 362.696,236.662 362.834,226.361 377.011 C 216.719 390.282,216.731 390.278,190.874 390.278 L 176.580 390.278 168.498 379.025 C 154.928 360.130,155.972 361.764,158.333 363.127 C 159.479 363.789,163.362 366.455,166.962 369.051 M152.122 412.832 C 159.740 429.439,166.285 443.005,166.667 442.980 C 167.049 442.955,173.225 433.899,180.392 422.856 C 187.559 411.813,193.930 402.778,194.550 402.778 C 195.170 402.778,195.729 431.648,195.792 466.935 C 195.855 502.221,195.605 530.790,195.235 530.420 C 194.866 530.051,187.422 514.774,178.694 496.472 C 169.966 478.169,157.070 451.319,150.037 436.806 C 137.172 410.260,133.776 397.941,133.382 376.389 C 133.317 372.870,137.703 381.397,152.122 412.832 M257.212 393.960 C 256.024 406.661,255.314 408.929,247.277 425.694 C 242.517 435.625,236.237 449.062,233.323 455.556 C 230.408 462.049,222.292 479.549,215.286 494.444 C 208.281 509.340,201.844 523.403,200.983 525.694 L 199.416 529.861 198.455 524.306 C 197.036 516.100,196.910 402.421,198.321 403.293 C 198.982 403.701,205.033 412.034,211.767 421.809 C 218.502 431.585,224.518 440.149,225.137 440.840 C 226.196 442.022,228.746 436.946,249.361 392.617 C 258.479 373.010,259.159 373.127,257.212 393.960 " stroke="none" fill="#000000" fill-rule="evenodd"></path></g></svg>